<?xml version="1.0" encoding="utf-8"?>
<!-- Generator: Adobe Illustrator 24.3.0, SVG Export Plug-In . SVG Version: 6.00 Build 0)  -->
<svg version="1.1" xmlns="http://www.w3.org/2000/svg" xmlns:xlink="http://www.w3.org/1999/xlink" x="0px" y="0px"
	 viewBox="0 0 500 500" style="enable-background:new 0 0 500 500;" xml:space="preserve">
<g id="Background_Complete">
	<g>
		<g>
			<g>
				<path style="fill:#E0E0E0;" d="M116.76,176.66c1.47-0.89,3.04-1.57,4.66-2.03l0.96-4.62l7.8-0.14l1.12,4.58
					c1.63,0.4,3.23,1.02,4.73,1.86l3.94-2.58l5.61,5.42l-2.44,4.03c0.89,1.47,1.57,3.04,2.03,4.66l4.61,0.96l0.14,7.8l-4.58,1.12
					c-0.4,1.63-1.02,3.23-1.86,4.73l2.58,3.94l-5.42,5.61l-4.03-2.44c-1.47,0.89-3.04,1.57-4.66,2.03l-0.96,4.61l-7.8,0.14
					l-1.12-4.58c-1.63-0.4-3.23-1.02-4.73-1.86l-3.94,2.58l-5.61-5.42l2.44-4.03c-0.89-1.47-1.57-3.04-2.03-4.66l-4.61-0.96
					l-0.14-7.8l4.58-1.12c0.4-1.63,1.02-3.23,1.86-4.73l-2.58-3.94l5.42-5.61L116.76,176.66L116.76,176.66z M120.92,187.05
					c-3.21,3.32-3.12,8.62,0.21,11.83c3.32,3.21,8.62,3.12,11.83-0.21c3.21-3.32,3.12-8.62-0.21-11.83
					C129.42,183.63,124.13,183.72,120.92,187.05z"/>
			</g>
		</g>
		<g>
			<g>
				<g>
					<path style="fill:#E0E0E0;" d="M120.92,187.05c0,0,0.44-0.62,1.56-1.37c1.1-0.73,3.02-1.55,5.46-1.29
						c1.2,0.13,2.51,0.53,3.71,1.32c1.18,0.79,2.3,1.92,3,3.38c0.37,0.72,0.62,1.52,0.76,2.35c0.15,0.83,0.17,1.71,0.05,2.58
						c-0.21,1.75-1.04,3.47-2.32,4.82c-1.31,1.33-3,2.22-4.74,2.49c-0.87,0.16-1.74,0.16-2.58,0.04c-0.84-0.11-1.64-0.34-2.37-0.68
						c-1.49-0.65-2.65-1.72-3.48-2.88c-0.83-1.17-1.27-2.47-1.45-3.66c-0.34-2.43,0.4-4.38,1.1-5.5
						C120.32,187.51,120.92,187.05,120.92,187.05c0.05,0.04-0.5,0.55-1.15,1.7c-0.63,1.13-1.3,3.03-0.92,5.36
						c0.19,1.14,0.63,2.38,1.44,3.48c0.81,1.09,1.93,2.11,3.34,2.71c0.69,0.32,1.46,0.53,2.25,0.63c0.79,0.11,1.62,0.1,2.44-0.05
						c1.64-0.26,3.24-1.1,4.47-2.36c1.21-1.28,2-2.9,2.2-4.55c0.12-0.82,0.11-1.65-0.03-2.44c-0.13-0.79-0.36-1.55-0.71-2.23
						c-0.65-1.39-1.7-2.47-2.82-3.24c-1.13-0.77-2.38-1.16-3.53-1.31c-2.33-0.29-4.21,0.44-5.32,1.11
						C121.45,186.52,120.96,187.09,120.92,187.05z"/>
				</g>
			</g>
		</g>
		<g>
			<g>
				<g>
					<path style="fill:#E0E0E0;" d="M116.76,176.66c0,0.01-0.09-0.04-0.26-0.14c-0.19-0.11-0.44-0.26-0.77-0.45
						c-0.7-0.42-1.72-1.02-3.04-1.79l0.09-0.01c-1.38,1.44-3.19,3.34-5.38,5.64l0.01-0.15c0.79,1.19,1.66,2.51,2.6,3.93l0.05,0.07
						l-0.04,0.08c-0.77,1.39-1.41,2.97-1.83,4.7l-0.02,0.09l-0.09,0.02c-1.43,0.35-2.97,0.74-4.57,1.14l0.13-0.17
						c0.05,2.45,0.1,5.06,0.15,7.8l-0.15-0.18c1.43,0.29,3,0.62,4.62,0.95l0.12,0.02l0.03,0.12c0.43,1.51,1.1,3.11,2.01,4.61
						l0.07,0.11l-0.06,0.11c-0.76,1.25-1.59,2.63-2.44,4.03l-0.03-0.26c1.76,1.7,3.67,3.53,5.62,5.41l-0.28-0.03
						c1.23-0.81,2.57-1.69,3.94-2.59l0.12-0.08l0.12,0.07c1.38,0.77,2.98,1.42,4.68,1.84l0.14,0.03l0.03,0.14
						c0.35,1.43,0.74,3,1.13,4.58l-0.23-0.18c2.47-0.04,5.11-0.09,7.8-0.14l-0.23,0.19c0.3-1.46,0.63-3.03,0.96-4.61l0.03-0.14
						l0.14-0.04c1.54-0.43,3.13-1.11,4.6-2l0,0l0.13-0.07l0.12,0.07c1.35,0.82,2.7,1.64,4.03,2.44l-0.3,0.04
						c1.83-1.9,3.64-3.77,5.42-5.61l-0.03,0.3c-0.87-1.33-1.73-2.64-2.58-3.94l-0.08-0.12l0.07-0.12c0.83-1.48,1.44-3.06,1.84-4.67
						l0.03-0.14l0.14-0.03c1.55-0.38,3.07-0.75,4.58-1.12l-0.17,0.23c-0.04-2.66-0.09-5.26-0.13-7.8l0.18,0.21
						c-1.57-0.33-3.1-0.65-4.61-0.97l-0.13-0.03l-0.04-0.12c-0.47-1.65-1.15-3.21-2-4.61l-0.07-0.11l0.07-0.11
						c0.84-1.38,1.65-2.72,2.45-4.02l0.03,0.25c-1.97-1.91-3.83-3.71-5.6-5.43l0.23,0.02c-1.39,0.9-2.69,1.75-3.95,2.57l-0.09,0.06
						l-0.09-0.05c-1.57-0.88-3.14-1.47-4.68-1.86l-0.09-0.02l-0.02-0.09c-0.4-1.67-0.76-3.16-1.11-4.58l0.14,0.11
						c-3.02,0.04-5.59,0.07-7.8,0.1l0.1-0.09c-0.4,1.84-0.72,3.35-0.99,4.61l-0.01,0.05l-0.04,0.01c-1.65,0.46-2.81,1-3.57,1.37
						c-0.36,0.19-0.64,0.33-0.84,0.44C116.85,176.62,116.76,176.67,116.76,176.66c0-0.01,0.09-0.07,0.26-0.18
						c0.18-0.11,0.45-0.27,0.82-0.47c0.75-0.4,1.9-0.96,3.56-1.45l-0.05,0.06c0.25-1.26,0.56-2.78,0.93-4.62l0.02-0.08l0.09,0
						c2.2-0.05,4.78-0.1,7.8-0.17l0.11,0l0.03,0.11c0.35,1.41,0.72,2.91,1.14,4.57l-0.12-0.12c1.57,0.38,3.17,0.98,4.78,1.86
						l-0.18,0.01c1.25-0.83,2.55-1.68,3.93-2.59l0.12-0.08l0.11,0.1c1.78,1.71,3.64,3.5,5.62,5.41l0.11,0.11l-0.08,0.14
						c-0.79,1.31-1.6,2.65-2.44,4.03l0-0.21c0.87,1.44,1.57,3.02,2.06,4.71l-0.16-0.15c1.51,0.31,3.05,0.63,4.62,0.95l0.17,0.04
						l0,0.18c0.05,2.54,0.1,5.13,0.14,7.8l0,0.18l-0.18,0.04c-1.51,0.37-3.03,0.75-4.58,1.13l0.17-0.17
						c-0.41,1.65-1.03,3.27-1.88,4.79l-0.01-0.24c0.85,1.3,1.71,2.61,2.58,3.94l0.1,0.16l-0.13,0.14c-1.78,1.84-3.59,3.72-5.41,5.61
						l-0.13,0.14l-0.16-0.1c-1.33-0.81-2.68-1.62-4.03-2.44l0.25,0l0,0c-1.51,0.92-3.14,1.6-4.72,2.05l0.17-0.18
						c-0.33,1.58-0.66,3.16-0.96,4.61l-0.04,0.19l-0.19,0c-2.68,0.05-5.33,0.09-7.8,0.13l-0.19,0l-0.04-0.18
						c-0.39-1.58-0.77-3.14-1.12-4.58l0.17,0.17c-1.73-0.43-3.38-1.1-4.79-1.89l0.24-0.01c-1.37,0.89-2.72,1.78-3.94,2.58l-0.15,0.1
						l-0.13-0.12c-1.95-1.88-3.84-3.72-5.6-5.42l-0.12-0.12l0.09-0.15c0.85-1.4,1.69-2.78,2.45-4.02l0,0.21
						c-0.93-1.54-1.61-3.18-2.04-4.72l0.15,0.14c-1.61-0.34-3.18-0.67-4.61-0.97l-0.15-0.03l0-0.15c-0.04-2.74-0.08-5.34-0.12-7.8
						l0-0.14l0.13-0.03c1.61-0.39,3.15-0.76,4.58-1.11l-0.12,0.12c0.44-1.76,1.1-3.36,1.89-4.76l0.01,0.15
						c-0.92-1.42-1.79-2.75-2.57-3.95l-0.05-0.08l0.07-0.07c2.22-2.27,4.05-4.15,5.45-5.58l0.04-0.04l0.05,0.03
						c1.29,0.8,2.28,1.42,2.97,1.85c0.33,0.21,0.58,0.37,0.76,0.48C116.67,176.59,116.76,176.65,116.76,176.66z"/>
				</g>
			</g>
		</g>
	</g>
	<g>
		<g>
			<g>
				<path style="fill:#F5F5F5;" d="M345.67,232.01c0.88-0.53,1.82-0.94,2.79-1.21l0.57-2.76l4.67-0.08l0.67,2.74
					c0.98,0.24,1.93,0.61,2.83,1.11l2.36-1.55l3.36,3.24l-1.46,2.41c0.53,0.88,0.94,1.82,1.21,2.79l2.76,0.57l0.08,4.67l-2.74,0.67
					c-0.24,0.98-0.61,1.93-1.11,2.83l1.55,2.36l-3.24,3.36l-2.41-1.46c-0.88,0.53-1.82,0.94-2.79,1.21l-0.58,2.76l-4.67,0.08
					l-0.67-2.74c-0.98-0.24-1.93-0.61-2.83-1.11l-2.36,1.55l-3.36-3.24l1.46-2.41c-0.53-0.88-0.94-1.82-1.21-2.79l-2.76-0.57
					l-0.08-4.67l2.74-0.67c0.24-0.98,0.61-1.93,1.11-2.83l-1.55-2.36l3.24-3.36L345.67,232.01L345.67,232.01z M348.16,238.23
					c-1.92,1.99-1.87,5.16,0.12,7.08c1.99,1.92,5.16,1.87,7.08-0.12c1.92-1.99,1.87-5.16-0.12-7.08
					C353.25,236.18,350.08,236.24,348.16,238.23z"/>
			</g>
		</g>
		<g>
			<g>
				<g>
					<path style="fill:#F5F5F5;" d="M348.16,238.23c0,0,0.26-0.37,0.93-0.82c0.66-0.44,1.81-0.93,3.27-0.77
						c0.72,0.08,1.5,0.31,2.22,0.79c0.71,0.47,1.38,1.15,1.8,2.02c0.22,0.43,0.37,0.91,0.46,1.41c0.09,0.5,0.1,1.02,0.03,1.54
						c-0.13,1.05-0.62,2.08-1.39,2.89c-0.78,0.8-1.8,1.33-2.84,1.49c-0.52,0.09-1.04,0.1-1.54,0.03c-0.5-0.07-0.98-0.2-1.42-0.41
						c-0.89-0.39-1.59-1.03-2.09-1.72c-0.5-0.7-0.76-1.48-0.87-2.19c-0.21-1.45,0.24-2.62,0.66-3.29
						C347.8,238.5,348.16,238.23,348.16,238.23c0.03,0.02-0.3,0.33-0.69,1.02c-0.38,0.68-0.78,1.82-0.55,3.21
						c0.11,0.68,0.38,1.42,0.86,2.08c0.48,0.65,1.15,1.26,2,1.62c0.42,0.19,0.87,0.32,1.35,0.38c0.47,0.07,0.97,0.06,1.46-0.03
						c0.98-0.16,1.94-0.66,2.68-1.41c0.73-0.77,1.19-1.74,1.32-2.73c0.07-0.49,0.06-0.99-0.02-1.46c-0.08-0.47-0.22-0.93-0.42-1.33
						c-0.39-0.83-1.02-1.48-1.69-1.94c-0.68-0.46-1.42-0.7-2.11-0.79c-1.4-0.17-2.52,0.26-3.18,0.67
						C348.48,237.92,348.18,238.26,348.16,238.23z"/>
				</g>
			</g>
		</g>
		<g>
			<g>
				<g>
					<path style="fill:#F5F5F5;" d="M345.67,232.01c0,0-0.05-0.02-0.16-0.08c-0.11-0.07-0.27-0.15-0.46-0.27
						c-0.42-0.25-1.03-0.61-1.82-1.07l0.06-0.01c-0.83,0.86-1.91,2-3.22,3.38l0.01-0.09c0.47,0.71,1,1.51,1.56,2.35l0.03,0.04
						l-0.02,0.04c-0.46,0.83-0.84,1.78-1.1,2.81l-0.01,0.06l-0.06,0.01c-0.85,0.21-1.78,0.44-2.74,0.68l0.08-0.1
						c0.03,1.47,0.06,3.03,0.09,4.67l-0.09-0.11c0.86,0.18,1.8,0.37,2.76,0.57l0.07,0.01l0.02,0.07c0.26,0.9,0.66,1.86,1.2,2.76
						l0.04,0.06l-0.04,0.06c-0.45,0.75-0.95,1.57-1.46,2.41l-0.02-0.16c1.06,1.02,2.19,2.11,3.36,3.24l-0.17-0.02
						c0.73-0.48,1.54-1.01,2.36-1.55l0.07-0.05l0.07,0.04c0.82,0.46,1.79,0.85,2.8,1.1l0.08,0.02l0.02,0.08
						c0.21,0.86,0.44,1.79,0.67,2.74l-0.14-0.11c1.48-0.03,3.06-0.05,4.67-0.08l-0.14,0.11c0.18-0.87,0.38-1.81,0.57-2.76l0.02-0.09
						l0.08-0.02c0.92-0.26,1.87-0.66,2.75-1.2l0,0l0.08-0.04l0.07,0.04c0.81,0.49,1.61,0.98,2.41,1.46l-0.18,0.02
						c1.1-1.13,2.18-2.25,3.24-3.36l-0.02,0.18c-0.52-0.79-1.04-1.58-1.54-2.36l-0.05-0.07l0.04-0.07c0.5-0.89,0.86-1.83,1.1-2.8
						l0.02-0.08l0.08-0.02c0.93-0.23,1.84-0.45,2.74-0.67l-0.1,0.14c-0.03-1.59-0.05-3.15-0.08-4.67l0.11,0.13
						c-0.94-0.2-1.86-0.39-2.76-0.58l-0.08-0.02l-0.02-0.07c-0.28-0.99-0.69-1.92-1.2-2.76l-0.04-0.06l0.04-0.06
						c0.5-0.83,0.99-1.63,1.47-2.41l0.02,0.15c-1.18-1.14-2.29-2.22-3.35-3.25l0.14,0.01c-0.83,0.54-1.61,1.05-2.36,1.54l-0.05,0.03
						l-0.05-0.03c-0.94-0.53-1.88-0.88-2.8-1.11l-0.06-0.01l-0.01-0.06c-0.24-1-0.46-1.89-0.66-2.74l0.08,0.06
						c-1.81,0.02-3.35,0.04-4.67,0.06l0.06-0.05c-0.24,1.1-0.43,2.01-0.59,2.76l-0.01,0.03l-0.03,0.01
						c-0.99,0.28-1.68,0.6-2.13,0.82c-0.22,0.11-0.38,0.2-0.5,0.26C345.73,231.99,345.67,232.02,345.67,232.01
						c0,0,0.05-0.04,0.16-0.11c0.11-0.07,0.27-0.16,0.49-0.28c0.45-0.24,1.14-0.58,2.13-0.87l-0.03,0.03
						c0.15-0.75,0.33-1.66,0.56-2.77l0.01-0.05l0.05,0c1.32-0.03,2.86-0.06,4.67-0.1l0.07,0l0.02,0.07
						c0.21,0.85,0.43,1.74,0.68,2.74l-0.07-0.07c0.94,0.23,1.9,0.59,2.86,1.12l-0.11,0c0.75-0.49,1.53-1.01,2.36-1.55l0.07-0.05
						l0.06,0.06c1.06,1.02,2.18,2.1,3.36,3.24l0.07,0.07l-0.05,0.08c-0.47,0.78-0.96,1.59-1.46,2.41l0-0.13
						c0.52,0.86,0.94,1.81,1.23,2.82l-0.1-0.09c0.9,0.19,1.83,0.38,2.76,0.57l0.1,0.02l0,0.11c0.03,1.52,0.06,3.07,0.09,4.67l0,0.11
						l-0.11,0.03c-0.9,0.22-1.81,0.45-2.74,0.67l0.1-0.1c-0.24,0.99-0.62,1.96-1.13,2.87l-0.01-0.15c0.51,0.78,1.03,1.56,1.55,2.36
						l0.06,0.09l-0.08,0.08c-1.07,1.1-2.15,2.22-3.24,3.36l-0.08,0.08l-0.1-0.06c-0.8-0.48-1.6-0.97-2.41-1.46l0.15,0l0,0
						c-0.91,0.55-1.88,0.96-2.82,1.23l0.1-0.11c-0.2,0.95-0.39,1.89-0.58,2.76l-0.02,0.11l-0.11,0c-1.61,0.03-3.19,0.05-4.67,0.08
						l-0.11,0l-0.03-0.11c-0.23-0.95-0.46-1.88-0.67-2.74l0.1,0.1c-1.04-0.26-2.02-0.66-2.86-1.13l0.14-0.01
						c-0.82,0.53-1.63,1.06-2.36,1.54l-0.09,0.06l-0.08-0.07c-1.16-1.13-2.3-2.23-3.35-3.25l-0.07-0.07l0.05-0.09
						c0.51-0.84,1.01-1.66,1.47-2.41l0,0.13c-0.56-0.92-0.96-1.9-1.22-2.82l0.09,0.08c-0.97-0.2-1.91-0.4-2.76-0.58l-0.09-0.02
						l0-0.09c-0.02-1.64-0.05-3.2-0.07-4.67l0-0.08l0.08-0.02c0.96-0.23,1.89-0.46,2.74-0.66l-0.07,0.07
						c0.26-1.05,0.66-2.01,1.13-2.85l0,0.09c-0.55-0.85-1.07-1.65-1.54-2.37l-0.03-0.05l0.04-0.04c1.33-1.36,2.43-2.48,3.26-3.34
						l0.03-0.03l0.03,0.02c0.77,0.48,1.36,0.85,1.78,1.11c0.19,0.12,0.34,0.22,0.46,0.29C345.62,231.97,345.67,232.01,345.67,232.01
						z"/>
				</g>
			</g>
		</g>
	</g>
	<g>
		<g>
			<g>
				<path style="fill:#E3E3E3;" d="M382.32,60.65c1.14-0.69,2.35-1.21,3.59-1.56l0.74-3.56l6.01-0.11l0.86,3.53
					c1.26,0.31,2.49,0.79,3.65,1.43l3.04-1.99l4.32,4.17l-1.88,3.1c0.69,1.14,1.21,2.35,1.56,3.59l3.56,0.74l0.11,6.01l-3.53,0.86
					c-0.31,1.26-0.79,2.49-1.43,3.65l1.99,3.04l-4.17,4.32l-3.1-1.88c-1.14,0.69-2.35,1.21-3.59,1.56l-0.74,3.56l-6.01,0.11
					l-0.86-3.53c-1.26-0.31-2.49-0.79-3.65-1.43l-3.04,1.99l-4.32-4.17l1.88-3.1c-0.69-1.14-1.21-2.35-1.56-3.59l-3.56-0.74
					l-0.11-6.01l3.53-0.87c0.31-1.26,0.79-2.49,1.43-3.65l-1.99-3.04l4.17-4.32L382.32,60.65L382.32,60.65z M385.52,68.65
					c-2.47,2.56-2.4,6.64,0.16,9.12c2.56,2.47,6.64,2.4,9.12-0.16c2.47-2.56,2.4-6.64-0.16-9.12
					C392.08,66.02,388,66.09,385.52,68.65z"/>
			</g>
		</g>
		<g>
			<g>
				<g>
					<path style="fill:#E3E3E3;" d="M385.52,68.65c0,0,0.34-0.48,1.2-1.05c0.85-0.56,2.33-1.19,4.21-0.99
						c0.92,0.1,1.94,0.41,2.86,1.02c0.91,0.61,1.77,1.48,2.31,2.6c0.28,0.55,0.48,1.17,0.59,1.81c0.12,0.64,0.13,1.31,0.04,1.98
						c-0.16,1.35-0.8,2.67-1.79,3.72c-1.01,1.03-2.31,1.71-3.65,1.92c-0.67,0.12-1.34,0.13-1.99,0.03
						c-0.65-0.08-1.27-0.26-1.83-0.52c-1.15-0.5-2.04-1.33-2.68-2.22c-0.64-0.9-0.98-1.9-1.12-2.82c-0.26-1.87,0.31-3.37,0.85-4.24
						C385.06,69.01,385.52,68.65,385.52,68.65c0.03,0.03-0.39,0.42-0.89,1.31c-0.49,0.87-1,2.34-0.71,4.13
						c0.15,0.88,0.48,1.83,1.11,2.68c0.62,0.84,1.48,1.62,2.57,2.09c0.54,0.25,1.13,0.41,1.74,0.48c0.61,0.09,1.25,0.08,1.88-0.04
						c1.27-0.2,2.49-0.85,3.45-1.82c0.93-0.99,1.54-2.24,1.7-3.51c0.09-0.63,0.08-1.27-0.03-1.88c-0.1-0.61-0.28-1.19-0.54-1.72
						c-0.5-1.07-1.31-1.91-2.17-2.5c-0.87-0.59-1.83-0.9-2.72-1.01c-1.8-0.22-3.25,0.34-4.1,0.86
						C385.93,68.25,385.55,68.69,385.52,68.65z"/>
				</g>
			</g>
		</g>
		<g>
			<g>
				<g>
					<path style="fill:#E3E3E3;" d="M382.32,60.65c0,0.01-0.07-0.03-0.2-0.11c-0.15-0.08-0.34-0.2-0.6-0.34
						c-0.54-0.32-1.32-0.78-2.34-1.38l0.07-0.01c-1.06,1.11-2.46,2.58-4.15,4.35l0.01-0.12c0.61,0.92,1.28,1.94,2,3.03l0.04,0.05
						l-0.03,0.06c-0.59,1.07-1.09,2.29-1.41,3.62l-0.02,0.07l-0.07,0.02c-1.1,0.27-2.29,0.57-3.53,0.88l0.1-0.13
						c0.04,1.89,0.08,3.9,0.12,6.01l-0.12-0.14c1.1,0.23,2.31,0.48,3.56,0.73l0.09,0.02l0.03,0.09c0.33,1.16,0.85,2.39,1.55,3.55
						l0.05,0.08l-0.05,0.08c-0.58,0.96-1.22,2.03-1.88,3.11l-0.03-0.2c1.36,1.31,2.83,2.72,4.33,4.17l-0.21-0.02
						c0.95-0.62,1.98-1.3,3.04-1.99l0.09-0.06l0.09,0.05c1.06,0.59,2.3,1.1,3.6,1.41l0.1,0.03l0.03,0.11
						c0.27,1.11,0.57,2.31,0.87,3.53l-0.18-0.14c1.9-0.03,3.94-0.07,6.01-0.11l-0.18,0.15c0.23-1.12,0.49-2.34,0.74-3.56l0.02-0.11
						l0.11-0.03c1.18-0.33,2.41-0.85,3.55-1.54l0,0l0.1-0.06l0.09,0.06c1.04,0.63,2.08,1.26,3.1,1.88l-0.23,0.03
						c1.41-1.46,2.8-2.9,4.18-4.32l-0.02,0.23c-0.67-1.02-1.33-2.04-1.99-3.04l-0.06-0.09l0.05-0.1c0.64-1.14,1.11-2.36,1.42-3.6
						l0.03-0.11l0.11-0.03c1.19-0.29,2.37-0.58,3.53-0.86l-0.13,0.17c-0.03-2.05-0.07-4.06-0.1-6.01l0.14,0.16
						c-1.21-0.25-2.39-0.5-3.56-0.74l-0.1-0.02l-0.03-0.1c-0.36-1.27-0.89-2.47-1.54-3.56l-0.05-0.08l0.05-0.08
						c0.65-1.06,1.27-2.09,1.89-3.1l0.02,0.19c-1.52-1.47-2.95-2.86-4.32-4.18l0.18,0.02c-1.07,0.7-2.07,1.35-3.04,1.98l-0.07,0.04
						l-0.07-0.04c-1.21-0.68-2.42-1.13-3.61-1.43l-0.07-0.02l-0.02-0.07c-0.31-1.28-0.59-2.44-0.85-3.53l0.11,0.08
						c-2.33,0.03-4.31,0.06-6.01,0.08l0.08-0.07c-0.3,1.42-0.55,2.58-0.76,3.55l-0.01,0.04l-0.03,0.01
						c-1.27,0.35-2.17,0.77-2.75,1.06c-0.28,0.15-0.49,0.26-0.65,0.34C382.39,60.62,382.32,60.65,382.32,60.65
						c0,0,0.07-0.05,0.2-0.14c0.14-0.08,0.35-0.21,0.63-0.37c0.57-0.31,1.47-0.74,2.74-1.12l-0.04,0.04
						c0.2-0.97,0.43-2.14,0.72-3.56l0.01-0.06l0.07,0c1.7-0.04,3.68-0.08,6.01-0.13l0.09,0l0.02,0.09c0.27,1.09,0.56,2.24,0.88,3.53
						l-0.09-0.09c1.21,0.29,2.45,0.75,3.68,1.44l-0.14,0c0.97-0.64,1.97-1.3,3.03-2l0.09-0.06l0.08,0.08
						c1.37,1.32,2.81,2.7,4.33,4.17l0.09,0.09l-0.06,0.11c-0.61,1.01-1.23,2.04-1.88,3.11l0-0.17c0.67,1.11,1.21,2.33,1.58,3.63
						l-0.13-0.12c1.16,0.24,2.35,0.49,3.56,0.74l0.13,0.03l0,0.14c0.04,1.95,0.07,3.96,0.11,6.01l0,0.14l-0.14,0.03
						c-1.16,0.29-2.33,0.57-3.53,0.87l0.13-0.13c-0.31,1.27-0.8,2.52-1.45,3.69l-0.01-0.19c0.66,1,1.32,2.01,1.99,3.04l0.08,0.12
						l-0.1,0.11c-1.37,1.42-2.76,2.86-4.17,4.32l-0.1,0.11l-0.13-0.08c-1.03-0.62-2.06-1.25-3.1-1.88l0.19,0l0,0
						c-1.17,0.71-2.42,1.24-3.64,1.58l0.13-0.14c-0.25,1.22-0.51,2.43-0.74,3.56l-0.03,0.14l-0.15,0c-2.07,0.04-4.11,0.07-6.01,0.1
						l-0.14,0l-0.03-0.14c-0.3-1.22-0.59-2.42-0.86-3.53l0.13,0.13c-1.34-0.33-2.6-0.85-3.69-1.45l0.18-0.01
						c-1.05,0.69-2.09,1.37-3.04,1.99l-0.12,0.08l-0.1-0.1c-1.5-1.45-2.96-2.87-4.32-4.18l-0.09-0.09l0.07-0.11
						c0.66-1.08,1.3-2.14,1.89-3.1l0,0.16c-0.72-1.19-1.24-2.45-1.57-3.63l0.12,0.11c-1.24-0.26-2.45-0.52-3.56-0.75l-0.11-0.02
						l0-0.12c-0.03-2.11-0.06-4.12-0.09-6.01l0-0.11l0.1-0.02c1.24-0.3,2.43-0.59,3.53-0.85l-0.09,0.09
						c0.34-1.36,0.85-2.59,1.46-3.67l0,0.11c-0.71-1.1-1.38-2.12-1.98-3.05l-0.04-0.06l0.05-0.05c1.71-1.75,3.12-3.2,4.2-4.3
						l0.03-0.03l0.04,0.02c0.99,0.62,1.76,1.09,2.29,1.42c0.25,0.16,0.44,0.28,0.59,0.37C382.25,60.6,382.32,60.64,382.32,60.65z"/>
				</g>
			</g>
		</g>
	</g>
	<g>
		<g>
			<g>
				<path style="fill:#E3E3E3;" d="M284.22,87.28c0.88-0.53,1.82-0.94,2.79-1.21l0.57-2.76l4.67-0.08l0.67,2.74
					c0.98,0.24,1.93,0.61,2.83,1.11l2.36-1.55l3.36,3.24l-1.46,2.41c0.53,0.88,0.94,1.82,1.21,2.79l2.76,0.57l0.08,4.67l-2.74,0.67
					c-0.24,0.98-0.61,1.93-1.11,2.83l1.55,2.36l-3.24,3.36l-2.41-1.46c-0.88,0.53-1.82,0.94-2.79,1.21l-0.57,2.76l-4.67,0.08
					l-0.67-2.74c-0.98-0.24-1.93-0.61-2.83-1.11l-2.36,1.55l-3.36-3.24l1.46-2.41c-0.53-0.88-0.94-1.82-1.21-2.79l-2.76-0.57
					l-0.08-4.67l2.74-0.67c0.24-0.98,0.61-1.93,1.11-2.83l-1.55-2.36l3.24-3.36L284.22,87.28L284.22,87.28z M286.71,93.5
					c-1.92,1.99-1.87,5.16,0.12,7.08c1.99,1.92,5.16,1.87,7.08-0.12c1.92-1.99,1.87-5.16-0.12-7.08
					C291.8,91.45,288.63,91.51,286.71,93.5z"/>
			</g>
		</g>
		<g>
			<g>
				<g>
					<path style="fill:#E3E3E3;" d="M286.71,93.5c0,0,0.26-0.37,0.93-0.82c0.66-0.44,1.81-0.93,3.27-0.77
						c0.72,0.08,1.5,0.31,2.22,0.79c0.71,0.47,1.38,1.15,1.8,2.02c0.22,0.43,0.37,0.91,0.46,1.41c0.09,0.5,0.1,1.02,0.03,1.54
						c-0.13,1.05-0.62,2.08-1.39,2.89c-0.78,0.8-1.8,1.33-2.84,1.49c-0.52,0.09-1.04,0.1-1.54,0.03c-0.5-0.07-0.98-0.2-1.42-0.41
						c-0.89-0.39-1.59-1.03-2.09-1.72c-0.5-0.7-0.76-1.48-0.87-2.19c-0.2-1.45,0.24-2.62,0.66-3.29
						C286.35,93.77,286.71,93.5,286.71,93.5c0.03,0.02-0.3,0.33-0.69,1.02c-0.38,0.68-0.78,1.82-0.55,3.21
						c0.11,0.68,0.38,1.42,0.86,2.08c0.48,0.65,1.15,1.26,2,1.62c0.42,0.19,0.87,0.32,1.35,0.38c0.47,0.07,0.97,0.06,1.46-0.03
						c0.98-0.16,1.94-0.66,2.68-1.41c0.73-0.77,1.19-1.74,1.32-2.73c0.07-0.49,0.06-0.99-0.02-1.46c-0.08-0.47-0.22-0.93-0.42-1.33
						c-0.39-0.83-1.02-1.48-1.69-1.94c-0.68-0.46-1.42-0.7-2.11-0.79c-1.4-0.17-2.52,0.26-3.18,0.67
						C287.03,93.19,286.74,93.53,286.71,93.5z"/>
				</g>
			</g>
		</g>
		<g>
			<g>
				<g>
					<path style="fill:#E3E3E3;" d="M284.22,87.28c0,0-0.05-0.02-0.16-0.08c-0.11-0.07-0.27-0.15-0.46-0.27
						c-0.42-0.25-1.03-0.61-1.82-1.07l0.06-0.01c-0.83,0.86-1.91,2-3.22,3.38l0.01-0.09c0.47,0.71,1,1.51,1.56,2.35l0.03,0.04
						l-0.02,0.04c-0.46,0.83-0.84,1.78-1.1,2.81l-0.01,0.06l-0.06,0.01c-0.85,0.21-1.78,0.44-2.74,0.68l0.08-0.1
						c0.03,1.47,0.06,3.03,0.09,4.67l-0.09-0.11c0.86,0.18,1.8,0.37,2.76,0.57l0.07,0.01l0.02,0.07c0.26,0.9,0.66,1.86,1.2,2.76
						l0.04,0.06l-0.04,0.06c-0.45,0.75-0.95,1.57-1.46,2.41l-0.02-0.16c1.06,1.02,2.19,2.11,3.36,3.24l-0.17-0.02
						c0.73-0.48,1.54-1.01,2.36-1.55l0.07-0.05l0.07,0.04c0.82,0.46,1.79,0.85,2.8,1.1l0.08,0.02l0.02,0.08
						c0.21,0.86,0.44,1.79,0.67,2.74l-0.14-0.11c1.48-0.03,3.06-0.06,4.67-0.08l-0.14,0.11c0.18-0.87,0.38-1.81,0.57-2.76l0.02-0.09
						l0.08-0.02c0.92-0.26,1.87-0.66,2.75-1.2l0,0l0.08-0.04l0.07,0.04c0.81,0.49,1.61,0.98,2.41,1.46l-0.18,0.02
						c1.1-1.13,2.18-2.25,3.24-3.36l-0.02,0.18c-0.52-0.79-1.04-1.58-1.54-2.36l-0.05-0.07l0.04-0.07c0.5-0.89,0.86-1.83,1.1-2.8
						l0.02-0.08l0.08-0.02c0.93-0.23,1.84-0.45,2.74-0.67l-0.1,0.14c-0.03-1.59-0.05-3.15-0.08-4.67l0.11,0.13
						c-0.94-0.2-1.86-0.39-2.76-0.58l-0.08-0.02l-0.02-0.07c-0.28-0.99-0.69-1.92-1.2-2.76l-0.04-0.06l0.04-0.06
						c0.5-0.83,0.99-1.63,1.47-2.41l0.02,0.15c-1.18-1.14-2.29-2.22-3.35-3.25l0.14,0.01c-0.83,0.54-1.61,1.05-2.36,1.54l-0.05,0.03
						l-0.05-0.03c-0.94-0.53-1.88-0.88-2.8-1.11l-0.06-0.01l-0.01-0.06c-0.24-1-0.46-1.89-0.66-2.74l0.08,0.06
						c-1.81,0.02-3.35,0.04-4.67,0.06l0.06-0.05c-0.24,1.1-0.43,2.01-0.59,2.76l-0.01,0.03l-0.03,0.01
						c-0.99,0.28-1.68,0.6-2.13,0.82c-0.22,0.11-0.38,0.2-0.5,0.26C284.28,87.26,284.22,87.29,284.22,87.28c0,0,0.05-0.04,0.16-0.11
						c0.11-0.07,0.27-0.16,0.49-0.28c0.45-0.24,1.14-0.58,2.13-0.87l-0.03,0.03c0.15-0.75,0.33-1.66,0.56-2.77l0.01-0.05l0.05,0
						c1.32-0.03,2.86-0.06,4.67-0.1l0.07,0l0.02,0.07c0.21,0.85,0.43,1.74,0.68,2.74l-0.07-0.07c0.94,0.23,1.9,0.59,2.86,1.12
						l-0.11,0c0.75-0.49,1.53-1.01,2.36-1.55l0.07-0.05l0.06,0.06c1.06,1.02,2.18,2.1,3.36,3.24l0.07,0.07l-0.05,0.08
						c-0.47,0.78-0.96,1.59-1.46,2.41l0-0.13c0.52,0.86,0.94,1.81,1.23,2.82l-0.1-0.09c0.9,0.19,1.83,0.38,2.76,0.57l0.1,0.02
						l0,0.11c0.03,1.52,0.06,3.07,0.09,4.67l0,0.11l-0.11,0.03c-0.9,0.22-1.81,0.45-2.74,0.67l0.1-0.1
						c-0.24,0.99-0.62,1.96-1.13,2.87l-0.01-0.15c0.51,0.78,1.03,1.56,1.55,2.36l0.06,0.09l-0.08,0.08
						c-1.07,1.1-2.15,2.22-3.24,3.36l-0.08,0.08l-0.1-0.06c-0.8-0.48-1.6-0.97-2.41-1.46l0.15,0l0,0c-0.91,0.55-1.88,0.96-2.82,1.23
						l0.1-0.11c-0.2,0.95-0.39,1.89-0.58,2.76l-0.02,0.11l-0.11,0c-1.61,0.03-3.19,0.05-4.67,0.08l-0.11,0l-0.03-0.11
						c-0.23-0.95-0.46-1.88-0.67-2.74l0.1,0.1c-1.04-0.26-2.02-0.66-2.86-1.13l0.14-0.01c-0.82,0.53-1.63,1.06-2.36,1.54l-0.09,0.06
						l-0.08-0.07c-1.16-1.13-2.3-2.23-3.35-3.25l-0.07-0.07l0.05-0.09c0.51-0.84,1.01-1.66,1.47-2.41l0,0.13
						c-0.56-0.92-0.96-1.9-1.22-2.82l0.09,0.08c-0.97-0.2-1.91-0.4-2.76-0.58l-0.09-0.02l0-0.09c-0.02-1.64-0.05-3.2-0.07-4.67
						l0-0.08l0.08-0.02c0.96-0.23,1.89-0.46,2.74-0.66l-0.07,0.07c0.26-1.05,0.66-2.01,1.13-2.85l0,0.09
						c-0.55-0.85-1.07-1.65-1.54-2.37l-0.03-0.05l0.04-0.04c1.33-1.36,2.43-2.48,3.26-3.34l0.03-0.03l0.03,0.02
						c0.77,0.48,1.36,0.85,1.78,1.11c0.19,0.12,0.34,0.22,0.46,0.29C284.17,87.24,284.22,87.28,284.22,87.28z"/>
				</g>
			</g>
		</g>
	</g>
	<g>
		<g>
			<g>
				<path style="fill:#E3E3E3;" d="M70.34,169.6c0.88-0.53,1.82-0.94,2.79-1.21l0.57-2.76l4.67-0.08l0.67,2.74
					c0.98,0.24,1.93,0.61,2.83,1.11l2.36-1.55l3.36,3.24l-1.46,2.41c0.53,0.88,0.94,1.82,1.21,2.79l2.76,0.57l0.08,4.67l-2.74,0.67
					c-0.24,0.98-0.61,1.93-1.11,2.83l1.55,2.36l-3.24,3.36l-2.41-1.46c-0.88,0.53-1.82,0.94-2.79,1.21l-0.57,2.76l-4.67,0.08
					l-0.67-2.74c-0.98-0.24-1.93-0.61-2.83-1.11l-2.36,1.55l-3.36-3.24l1.46-2.41c-0.53-0.88-0.94-1.82-1.21-2.79l-2.76-0.57
					l-0.08-4.67l2.74-0.67c0.24-0.98,0.61-1.93,1.11-2.83l-1.55-2.36l3.24-3.36L70.34,169.6L70.34,169.6z M72.82,175.82
					c-1.92,1.99-1.87,5.16,0.12,7.08c1.99,1.92,5.16,1.87,7.08-0.12c1.92-1.99,1.87-5.16-0.12-7.08
					C77.92,173.77,74.74,173.83,72.82,175.82z"/>
			</g>
		</g>
		<g>
			<g>
				<g>
					<path style="fill:#E3E3E3;" d="M72.82,175.82c0,0,0.26-0.37,0.93-0.82c0.66-0.44,1.81-0.93,3.27-0.77
						c0.72,0.08,1.5,0.31,2.22,0.79c0.71,0.47,1.38,1.15,1.8,2.02c0.22,0.43,0.37,0.91,0.46,1.41c0.09,0.5,0.1,1.02,0.03,1.54
						c-0.13,1.05-0.62,2.08-1.39,2.89c-0.78,0.8-1.8,1.33-2.84,1.49c-0.52,0.09-1.04,0.1-1.54,0.03c-0.5-0.07-0.98-0.2-1.42-0.41
						c-0.89-0.39-1.59-1.03-2.09-1.72c-0.5-0.7-0.76-1.48-0.87-2.19c-0.21-1.45,0.24-2.62,0.66-3.29
						C72.46,176.09,72.82,175.82,72.82,175.82c0.03,0.02-0.3,0.33-0.69,1.02c-0.38,0.68-0.78,1.82-0.55,3.21
						c0.11,0.68,0.38,1.42,0.86,2.08c0.48,0.65,1.15,1.26,2,1.62c0.42,0.19,0.87,0.32,1.35,0.38c0.47,0.07,0.97,0.06,1.46-0.03
						c0.98-0.16,1.94-0.66,2.68-1.41c0.73-0.77,1.19-1.74,1.32-2.73c0.07-0.49,0.06-0.99-0.02-1.46c-0.08-0.47-0.22-0.93-0.42-1.33
						c-0.39-0.83-1.02-1.48-1.69-1.94c-0.68-0.46-1.42-0.7-2.11-0.79c-1.4-0.17-2.52,0.26-3.18,0.67
						C73.14,175.51,72.85,175.85,72.82,175.82z"/>
				</g>
			</g>
		</g>
		<g>
			<g>
				<g>
					<path style="fill:#E3E3E3;" d="M70.34,169.6c0,0-0.05-0.02-0.16-0.08c-0.11-0.07-0.27-0.15-0.46-0.27
						c-0.42-0.25-1.03-0.61-1.82-1.07l0.06-0.01c-0.83,0.86-1.91,2-3.22,3.38l0.01-0.09c0.47,0.71,1,1.51,1.56,2.35l0.03,0.04
						l-0.02,0.04c-0.46,0.83-0.84,1.78-1.1,2.81l-0.01,0.06l-0.06,0.01c-0.85,0.21-1.78,0.44-2.74,0.68l0.08-0.1
						c0.03,1.47,0.06,3.03,0.09,4.67l-0.09-0.11c0.86,0.18,1.8,0.37,2.76,0.57l0.07,0.01l0.02,0.07c0.26,0.9,0.66,1.86,1.2,2.76
						l0.04,0.06l-0.04,0.06c-0.45,0.75-0.95,1.57-1.46,2.41l-0.02-0.16c1.06,1.02,2.19,2.11,3.36,3.24l-0.17-0.02
						c0.73-0.48,1.54-1.01,2.36-1.55l0.07-0.05l0.07,0.04c0.82,0.46,1.79,0.85,2.8,1.1l0.08,0.02l0.02,0.08
						c0.21,0.86,0.44,1.79,0.67,2.74l-0.14-0.11c1.48-0.03,3.06-0.06,4.67-0.08l-0.14,0.11c0.18-0.87,0.38-1.81,0.57-2.76l0.02-0.09
						l0.08-0.02c0.92-0.26,1.87-0.66,2.75-1.2l0,0l0.08-0.04l0.07,0.04c0.81,0.49,1.61,0.98,2.41,1.46l-0.18,0.02
						c1.1-1.13,2.18-2.25,3.24-3.36l-0.02,0.18c-0.52-0.79-1.04-1.58-1.54-2.36l-0.05-0.07l0.04-0.07c0.5-0.89,0.86-1.83,1.1-2.8
						l0.02-0.08l0.08-0.02c0.93-0.23,1.84-0.45,2.74-0.67l-0.1,0.14c-0.03-1.59-0.05-3.15-0.08-4.67l0.11,0.13
						c-0.94-0.2-1.86-0.39-2.76-0.58l-0.08-0.02l-0.02-0.07c-0.28-0.99-0.69-1.92-1.2-2.76l-0.04-0.06l0.04-0.06
						c0.5-0.83,0.99-1.63,1.47-2.41l0.02,0.15c-1.18-1.14-2.29-2.22-3.35-3.25l0.14,0.01c-0.83,0.54-1.61,1.05-2.36,1.54l-0.05,0.03
						l-0.05-0.03c-0.94-0.53-1.88-0.88-2.8-1.11l-0.06-0.01l-0.01-0.06c-0.24-1-0.46-1.89-0.66-2.74l0.08,0.06
						c-1.81,0.02-3.35,0.04-4.67,0.06l0.06-0.05c-0.24,1.1-0.43,2.01-0.59,2.76l-0.01,0.03l-0.03,0.01
						c-0.99,0.28-1.68,0.6-2.13,0.82c-0.22,0.11-0.38,0.2-0.5,0.26C70.39,169.58,70.34,169.61,70.34,169.6c0,0,0.05-0.04,0.16-0.11
						c0.11-0.07,0.27-0.16,0.49-0.28c0.45-0.24,1.14-0.58,2.13-0.87l-0.03,0.03c0.15-0.75,0.33-1.66,0.56-2.77l0.01-0.05l0.05,0
						c1.32-0.03,2.86-0.06,4.67-0.1l0.07,0l0.02,0.07c0.21,0.85,0.43,1.74,0.68,2.74l-0.07-0.07c0.94,0.23,1.9,0.59,2.86,1.12
						l-0.11,0c0.75-0.49,1.53-1.01,2.36-1.55l0.07-0.05l0.06,0.06c1.06,1.02,2.18,2.1,3.36,3.24l0.07,0.07l-0.05,0.08
						c-0.47,0.78-0.96,1.59-1.46,2.41l0-0.13c0.52,0.86,0.94,1.81,1.23,2.82l-0.1-0.09c0.9,0.19,1.83,0.38,2.76,0.57l0.1,0.02
						l0,0.11c0.03,1.52,0.06,3.07,0.09,4.67l0,0.11l-0.11,0.03c-0.9,0.22-1.81,0.45-2.74,0.67l0.1-0.1
						c-0.24,0.99-0.62,1.96-1.13,2.87l-0.01-0.15c0.51,0.78,1.03,1.56,1.55,2.36l0.06,0.09l-0.08,0.08
						c-1.07,1.1-2.15,2.22-3.24,3.36l-0.08,0.08l-0.1-0.06c-0.8-0.48-1.6-0.97-2.41-1.46l0.15,0l0,0c-0.91,0.55-1.88,0.96-2.82,1.23
						l0.1-0.11c-0.2,0.95-0.39,1.89-0.58,2.76l-0.02,0.11l-0.11,0c-1.61,0.03-3.19,0.05-4.67,0.08l-0.11,0l-0.03-0.11
						c-0.23-0.95-0.46-1.88-0.67-2.74l0.1,0.1c-1.04-0.26-2.02-0.66-2.86-1.13l0.14-0.01c-0.82,0.54-1.63,1.06-2.36,1.54l-0.09,0.06
						l-0.08-0.07c-1.16-1.13-2.3-2.23-3.35-3.25l-0.07-0.07l0.05-0.09c0.51-0.84,1.01-1.66,1.47-2.41l0,0.13
						c-0.56-0.92-0.96-1.9-1.22-2.82l0.09,0.08c-0.97-0.2-1.91-0.4-2.76-0.58l-0.09-0.02l0-0.09c-0.02-1.64-0.05-3.2-0.07-4.67
						l0-0.08l0.08-0.02c0.96-0.23,1.89-0.46,2.74-0.66l-0.07,0.07c0.26-1.05,0.66-2.01,1.13-2.85l0,0.09
						c-0.55-0.85-1.07-1.65-1.54-2.37l-0.03-0.05l0.04-0.04c1.33-1.36,2.43-2.48,3.26-3.34l0.03-0.03l0.03,0.02
						c0.77,0.48,1.36,0.85,1.78,1.11c0.19,0.12,0.34,0.22,0.46,0.29C70.28,169.56,70.34,169.6,70.34,169.6z"/>
				</g>
			</g>
		</g>
	</g>
	<g>
		<g>
			<g>
				<path style="fill:#E3E3E3;stroke:#E0E0E0;stroke-width:0.05;stroke-miterlimit:10;" d="M92.16,242.23
					c2.8-1.69,5.77-2.97,8.84-3.84l1.82-8.75l14.79-0.26l2.13,8.68c3.1,0.76,6.12,1.94,8.97,3.53l7.47-4.9l10.64,10.27l-4.63,7.64
					c1.69,2.8,2.97,5.78,3.84,8.85l8.75,1.82l0.26,14.79l-8.68,2.13c-0.76,3.1-1.94,6.12-3.53,8.97l4.9,7.48l-10.27,10.64
					l-7.64-4.63c-2.8,1.69-5.77,2.97-8.84,3.84l-1.82,8.75l-14.79,0.26l-2.13-8.68c-3.1-0.76-6.12-1.94-8.97-3.53l-7.47,4.9
					l-10.64-10.27l4.63-7.64c-1.69-2.8-2.97-5.77-3.84-8.84l-8.75-1.82l-0.26-14.79l8.68-2.13c0.76-3.1,1.94-6.12,3.53-8.97
					l-4.9-7.47l10.27-10.64L92.16,242.23L92.16,242.23z M100.04,261.93c-6.09,6.3-5.91,16.35,0.39,22.44
					c6.3,6.09,16.35,5.91,22.44-0.39c6.09-6.3,5.91-16.35-0.39-22.44C116.17,255.45,106.13,255.63,100.04,261.93z"/>
			</g>
		</g>
		<g>
			<g>
				<g>
					<path style="fill:#E3E3E3;" d="M100.04,261.93c0,0,0.83-1.17,2.95-2.59c2.09-1.39,5.73-2.94,10.35-2.45
						c2.28,0.26,4.77,1,7.04,2.5c2.25,1.5,4.37,3.64,5.69,6.41c0.7,1.36,1.18,2.87,1.44,4.45c0.29,1.58,0.33,3.23,0.09,4.88
						c-0.4,3.32-1.97,6.58-4.4,9.15c-2.48,2.53-5.69,4.21-8.99,4.73c-1.64,0.3-3.3,0.31-4.89,0.08c-1.59-0.21-3.12-0.64-4.5-1.29
						c-2.82-1.23-5.03-3.27-6.61-5.46c-1.58-2.22-2.41-4.68-2.74-6.94c-0.65-4.6,0.77-8.3,2.08-10.43
						C98.9,262.8,100.04,261.93,100.04,261.93c0.09,0.07-0.96,1.04-2.18,3.22c-1.19,2.14-2.46,5.75-1.75,10.16
						c0.36,2.17,1.19,4.51,2.72,6.6c1.53,2.07,3.65,3.99,6.33,5.13c1.32,0.61,2.77,1,4.27,1.19c1.5,0.21,3.07,0.19,4.62-0.1
						c3.12-0.5,6.14-2.1,8.48-4.48c2.3-2.43,3.79-5.5,4.18-8.64c0.23-1.56,0.2-3.13-0.06-4.62c-0.24-1.5-0.69-2.93-1.34-4.23
						c-1.23-2.64-3.23-4.69-5.35-6.15c-2.15-1.46-4.51-2.2-6.7-2.49c-4.43-0.55-7.99,0.84-10.09,2.11
						C101.05,260.94,100.12,262.01,100.04,261.93z"/>
				</g>
			</g>
		</g>
		<g>
			<g>
				<g>
					<path style="fill:#E3E3E3;" d="M92.16,242.23c0,0.01-0.17-0.07-0.49-0.26c-0.36-0.21-0.84-0.49-1.47-0.85
						c-1.34-0.79-3.26-1.93-5.76-3.4l0.18-0.02c-2.61,2.74-6.05,6.34-10.21,10.7l0.03-0.29c1.49,2.26,3.15,4.77,4.93,7.45l0.09,0.13
						l-0.08,0.14c-1.45,2.63-2.67,5.63-3.47,8.91l-0.04,0.17l-0.18,0.04c-2.7,0.67-5.63,1.4-8.68,2.15l0.25-0.32
						c0.09,4.66,0.19,9.6,0.29,14.79l-0.28-0.34c2.71,0.56,5.7,1.17,8.76,1.8l0.22,0.05l0.06,0.22c0.81,2.85,2.08,5.89,3.82,8.74
						l0.12,0.2l-0.12,0.2c-1.43,2.37-3.01,4.98-4.62,7.65l-0.06-0.5c3.35,3.22,6.95,6.7,10.65,10.26l-0.53-0.05
						c2.33-1.53,4.88-3.21,7.47-4.91l0.22-0.14l0.23,0.13c2.61,1.45,5.66,2.7,8.87,3.48l0.26,0.06l0.06,0.26
						c0.67,2.72,1.4,5.69,2.13,8.68l-0.44-0.34c4.68-0.08,9.7-0.17,14.79-0.27l-0.43,0.36c0.57-2.76,1.19-5.75,1.82-8.75l0.06-0.27
						l0.26-0.07c2.91-0.82,5.93-2.1,8.73-3.79l0.01,0l0.24-0.14l0.23,0.14c2.57,1.56,5.12,3.1,7.64,4.63l-0.56,0.07
						c3.47-3.6,6.9-7.14,10.28-10.64l-0.05,0.56c-1.65-2.52-3.28-5.01-4.9-7.48l-0.15-0.23l0.13-0.24c1.57-2.81,2.74-5.81,3.49-8.86
						l0.06-0.26l0.26-0.06c2.94-0.72,5.83-1.42,8.68-2.12l-0.33,0.43c-0.08-5.05-0.17-9.98-0.25-14.79l0.33,0.4
						c-2.97-0.62-5.89-1.23-8.75-1.83l-0.24-0.05l-0.07-0.24c-0.89-3.14-2.18-6.08-3.79-8.75l-0.12-0.2l0.12-0.2
						c1.59-2.62,3.14-5.15,4.65-7.63l0.06,0.47c-3.74-3.62-7.26-7.04-10.62-10.3l0.43,0.04c-2.63,1.72-5.1,3.33-7.49,4.88
						l-0.17,0.11l-0.17-0.1c-2.98-1.67-5.96-2.79-8.89-3.53l-0.18-0.04l-0.04-0.17c-0.76-3.16-1.45-6-2.1-8.69l0.27,0.2
						c-5.73,0.08-10.61,0.14-14.79,0.19l0.2-0.16c-0.75,3.49-1.37,6.36-1.88,8.74l-0.02,0.09l-0.08,0.02
						c-3.13,0.87-5.33,1.9-6.76,2.6c-0.68,0.36-1.21,0.63-1.59,0.83C92.33,242.16,92.16,242.24,92.16,242.23
						c0-0.01,0.17-0.13,0.49-0.34c0.34-0.21,0.85-0.52,1.56-0.9c1.42-0.75,3.61-1.82,6.75-2.75l-0.1,0.11
						c0.48-2.39,1.06-5.26,1.76-8.77l0.03-0.16l0.16,0c4.18-0.09,9.06-0.2,14.79-0.32l0.21,0l0.05,0.21
						c0.67,2.68,1.37,5.52,2.16,8.68l-0.22-0.22c2.97,0.73,6.02,1.85,9.06,3.54l-0.34,0.01c2.38-1.57,4.84-3.19,7.46-4.92l0.23-0.15
						l0.2,0.19c3.37,3.24,6.91,6.65,10.66,10.25l0.22,0.21l-0.16,0.26c-1.5,2.48-3.04,5.03-4.62,7.65l0-0.41
						c1.65,2.73,2.98,5.73,3.9,8.94l-0.31-0.29c2.87,0.59,5.78,1.2,8.75,1.81l0.33,0.07l0.01,0.34c0.09,4.81,0.18,9.74,0.27,14.79
						l0.01,0.35l-0.34,0.08c-2.85,0.7-5.75,1.41-8.68,2.14l0.32-0.32c-0.77,3.13-1.96,6.2-3.57,9.08l-0.02-0.46
						c1.62,2.47,3.25,4.96,4.9,7.47l0.2,0.3l-0.25,0.26c-3.38,3.5-6.8,7.05-10.27,10.64l-0.25,0.26l-0.31-0.19
						c-2.53-1.53-5.08-3.08-7.64-4.63l0.47,0l-0.01,0c-2.87,1.74-5.96,3.04-8.95,3.89l0.32-0.34c-0.63,3-1.25,5.99-1.82,8.75
						l-0.07,0.35l-0.36,0.01c-5.09,0.09-10.11,0.17-14.79,0.25l-0.36,0.01l-0.08-0.35c-0.73-3-1.46-5.96-2.12-8.68l0.32,0.32
						c-3.29-0.81-6.41-2.09-9.08-3.58l0.45-0.02c-2.59,1.7-5.15,3.37-7.48,4.89l-0.28,0.19l-0.24-0.24
						c-3.69-3.57-7.29-7.06-10.63-10.29l-0.23-0.23l0.17-0.28c1.62-2.66,3.2-5.27,4.64-7.63l0,0.41c-1.76-2.92-3.05-6.03-3.87-8.94
						l0.28,0.26c-3.06-0.64-6.04-1.27-8.75-1.84l-0.28-0.06l0-0.29c-0.08-5.19-0.15-10.13-0.23-14.79l0-0.26l0.25-0.06
						c3.05-0.74,5.98-1.45,8.69-2.1l-0.22,0.22c0.83-3.34,2.09-6.37,3.59-9.03l0.01,0.28c-1.75-2.7-3.39-5.22-4.87-7.49l-0.1-0.16
						l0.13-0.13c4.21-4.31,7.69-7.87,10.33-10.58l0.08-0.08l0.1,0.06c2.44,1.52,4.32,2.69,5.63,3.5c0.62,0.39,1.09,0.69,1.45,0.92
						C91.99,242.1,92.16,242.22,92.16,242.23z"/>
				</g>
			</g>
		</g>
	</g>
	<g>
		<g>
			<g>
				<path style="fill:#E0E0E0;" d="M347.16,93c2.2,0.04,4.35,0.38,6.41,0.99l4.18-4.33l8.51,5.16l-1.9,5.7
					c1.49,1.55,2.79,3.3,3.84,5.23l6.01-0.11l2.37,9.66l-5.38,2.68c-0.04,2.2-0.38,4.35-0.99,6.41l4.33,4.18l-5.16,8.51l-5.7-1.9
					c-1.55,1.49-3.3,2.79-5.23,3.84l0.1,6.01l-9.66,2.37l-2.68-5.38c-2.2-0.04-4.35-0.38-6.41-0.99l-4.18,4.33l-8.51-5.16l1.9-5.7
					c-1.49-1.55-2.79-3.3-3.84-5.23l-6.01,0.11l-2.37-9.66l5.38-2.68c0.04-2.2,0.38-4.35,0.99-6.41l-4.33-4.18l5.16-8.51l5.7,1.9
					c1.55-1.49,3.3-2.78,5.23-3.84l-0.11-6.01l9.66-2.37L347.16,93L347.16,93z M344.58,107.04c-5.73,1.4-9.23,7.18-7.83,12.91
					c1.4,5.73,7.18,9.23,12.91,7.83c5.73-1.4,9.23-7.18,7.83-12.91C356.08,109.14,350.3,105.63,344.58,107.04z"/>
			</g>
		</g>
		<g>
			<g>
				<g>
					<path style="fill:#E0E0E0;" d="M344.58,107.04c0,0,0.89-0.37,2.61-0.42c1.68-0.04,4.31,0.39,6.77,2.32
						c1.2,0.96,2.35,2.28,3.11,3.95c0.74,1.66,1.18,3.64,0.94,5.69c-0.09,1.03-0.36,2.06-0.78,3.05c-0.4,1-0.98,1.96-1.7,2.81
						c-1.42,1.74-3.48,3.04-5.79,3.62c-2.32,0.55-4.75,0.35-6.81-0.54c-1.04-0.42-1.99-1.01-2.81-1.71
						c-0.83-0.69-1.54-1.48-2.1-2.35c-1.16-1.71-1.69-3.66-1.8-5.48c-0.1-1.83,0.31-3.53,0.93-4.94c1.28-2.85,3.41-4.45,4.93-5.19
						C343.62,107.12,344.58,107.04,344.58,107.04c0.02,0.07-0.92,0.25-2.4,1.05c-1.45,0.79-3.46,2.39-4.64,5.15
						c-0.57,1.36-0.94,2.99-0.82,4.73c0.13,1.73,0.65,3.58,1.76,5.19c0.53,0.82,1.22,1.56,2,2.21c0.78,0.66,1.68,1.21,2.67,1.6
						c1.95,0.83,4.24,1.01,6.43,0.5c2.18-0.56,4.13-1.77,5.47-3.41c0.69-0.8,1.24-1.71,1.62-2.65c0.4-0.94,0.66-1.92,0.76-2.89
						c0.25-1.94-0.15-3.83-0.84-5.42c-0.7-1.6-1.78-2.87-2.92-3.82c-2.32-1.9-4.85-2.39-6.5-2.42
						C345.51,106.83,344.59,107.11,344.58,107.04z"/>
				</g>
			</g>
		</g>
		<g>
			<g>
				<g>
					<path style="fill:#E0E0E0;" d="M347.16,93c0,0.01-0.07-0.1-0.19-0.32c-0.13-0.25-0.3-0.58-0.53-1.01
						c-0.48-0.93-1.16-2.27-2.06-4l0.11,0.05c-2.47,0.62-5.72,1.44-9.65,2.42l0.12-0.15c0.04,1.82,0.08,3.84,0.13,6.01l0,0.11
						l-0.1,0.05c-1.77,0.98-3.54,2.24-5.17,3.83l-0.09,0.08l-0.12-0.04c-1.78-0.59-3.71-1.23-5.71-1.89l0.26-0.09
						c-1.62,2.68-3.34,5.53-5.14,8.52l-0.04-0.3c1.34,1.29,2.82,2.71,4.33,4.17l0.11,0.11l-0.04,0.15c-0.56,1.92-0.93,4.1-0.97,6.34
						l0,0.16l-0.14,0.07c-1.67,0.83-3.5,1.75-5.37,2.69l0.14-0.31c0.75,3.03,1.55,6.31,2.38,9.66l-0.28-0.22
						c1.87-0.03,3.93-0.07,6.01-0.11l0.18,0l0.08,0.15c0.96,1.76,2.25,3.56,3.8,5.16l0.12,0.13l-0.06,0.17
						c-0.6,1.79-1.24,3.74-1.9,5.71l-0.13-0.35c2.69,1.63,5.58,3.38,8.51,5.16l-0.38,0.05c1.32-1.37,2.74-2.84,4.18-4.33l0.13-0.13
						l0.18,0.05c1.95,0.58,4.13,0.93,6.32,0.97l0.01,0l0.19,0.01l0.08,0.16c0.9,1.81,1.8,3.6,2.68,5.38l-0.35-0.16
						c3.27-0.8,6.49-1.59,9.66-2.37l-0.23,0.3c-0.03-2.02-0.07-4.03-0.1-6.01l0-0.18l0.16-0.09c1.9-1.04,3.64-2.32,5.17-3.79
						l0.13-0.12l0.17,0.06c1.93,0.65,3.83,1.28,5.7,1.91l-0.34,0.13c1.76-2.9,3.49-5.74,5.17-8.5l0.05,0.35
						c-1.47-1.42-2.91-2.81-4.32-4.18l-0.12-0.12l0.05-0.16c0.62-2.1,0.94-4.24,0.99-6.34l0-0.16l0.14-0.07
						c1.85-0.92,3.63-1.81,5.38-2.68l-0.13,0.29c-0.83-3.4-1.61-6.61-2.35-9.67l0.23,0.18c-2.11,0.03-4.1,0.06-6.01,0.09l-0.13,0
						l-0.06-0.12c-1.1-2.02-2.39-3.73-3.79-5.19l-0.08-0.09l0.04-0.11c0.7-2.07,1.33-3.94,1.92-5.7l0.08,0.21
						c-3.29-2.01-6.09-3.73-8.48-5.2l0.17-0.02c-1.68,1.72-3.06,3.13-4.2,4.3l-0.04,0.04l-0.06-0.02c-2.09-0.63-3.71-0.83-4.78-0.95
						c-0.52-0.04-0.91-0.07-1.2-0.1C347.28,93.02,347.16,93.01,347.16,93c0-0.01,0.14-0.01,0.4-0.01c0.27,0,0.67,0.01,1.21,0.05
						c1.08,0.08,2.71,0.26,4.83,0.86l-0.1,0.03c1.13-1.19,2.49-2.61,4.15-4.35l0.08-0.08l0.1,0.06c2.41,1.45,5.23,3.14,8.53,5.12
						l0.12,0.07l-0.05,0.14c-0.58,1.77-1.2,3.64-1.89,5.71l-0.05-0.2c1.43,1.48,2.76,3.21,3.89,5.26l-0.2-0.11
						c1.91-0.04,3.9-0.08,6.01-0.12l0.19,0l0.04,0.18c0.75,3.05,1.55,6.26,2.39,9.66l0.05,0.2l-0.18,0.09
						c-1.74,0.87-3.53,1.77-5.37,2.69l0.15-0.23c-0.04,2.14-0.36,4.33-0.99,6.48l-0.07-0.27c1.42,1.37,2.86,2.76,4.33,4.17
						l0.16,0.16l-0.12,0.19c-1.67,2.77-3.39,5.61-5.15,8.51l-0.12,0.2l-0.22-0.07c-1.88-0.62-3.78-1.26-5.71-1.9l0.3-0.07
						c-1.56,1.51-3.34,2.82-5.29,3.89l0.16-0.27c0.04,1.98,0.07,3.99,0.11,6.01l0,0.24l-0.24,0.06c-3.18,0.78-6.4,1.57-9.66,2.37
						l-0.24,0.06l-0.11-0.22c-0.89-1.78-1.78-3.57-2.69-5.38l0.27,0.17l-0.01,0c-2.26-0.04-4.48-0.41-6.48-1l0.31-0.08
						c-1.43,1.49-2.86,2.96-4.18,4.33l-0.17,0.17l-0.21-0.13c-2.93-1.78-5.81-3.53-8.51-5.16l-0.2-0.12l0.08-0.23
						c0.66-1.97,1.31-3.92,1.91-5.7l0.07,0.3c-1.58-1.64-2.9-3.49-3.88-5.29l0.26,0.15c-2.08,0.03-4.14,0.07-6.01,0.1l-0.23,0
						l-0.05-0.22c-0.82-3.36-1.62-6.63-2.36-9.67l-0.05-0.21l0.2-0.1c1.87-0.93,3.71-1.85,5.38-2.68l-0.15,0.23
						c0.04-2.3,0.43-4.52,1.01-6.48l0.07,0.25c-1.51-1.46-2.98-2.89-4.32-4.19l-0.14-0.13l0.1-0.16c1.82-2.98,3.55-5.82,5.18-8.5
						l0.09-0.15l0.16,0.06c2,0.67,3.92,1.32,5.7,1.92l-0.2,0.05c1.67-1.6,3.48-2.87,5.28-3.85L334.74,96
						c-0.03-2.17-0.06-4.19-0.08-6.01l0-0.12l0.12-0.03c3.94-0.94,7.2-1.72,9.68-2.31l0.08-0.02l0.03,0.07
						c0.84,1.74,1.49,3.08,1.95,4.01c0.21,0.44,0.37,0.79,0.49,1.04C347.11,92.87,347.16,92.99,347.16,93z"/>
				</g>
			</g>
		</g>
	</g>
	<g>
		<g>
			<g>
				<g>
					<path style="fill:#EBEBEB;" d="M375.07,282.52c0,0,0.9-0.37,2.64-0.42c1.7-0.04,4.35,0.39,6.83,2.34
						c1.21,0.97,2.38,2.3,3.13,3.98c0.75,1.68,1.19,3.67,0.95,5.74c-0.09,1.03-0.36,2.08-0.78,3.08c-0.41,1.01-0.98,1.98-1.72,2.84
						c-1.43,1.76-3.51,3.07-5.84,3.66c-2.34,0.55-4.79,0.36-6.87-0.54c-1.05-0.42-2.01-1.02-2.84-1.72
						c-0.84-0.69-1.56-1.49-2.12-2.37c-1.17-1.72-1.7-3.7-1.82-5.53c-0.11-1.84,0.31-3.56,0.94-4.98c1.29-2.88,3.45-4.49,4.97-5.24
						C374.1,282.61,375.07,282.52,375.07,282.52c0.02,0.07-0.93,0.25-2.42,1.06c-1.46,0.8-3.5,2.41-4.69,5.2
						c-0.58,1.38-0.95,3.02-0.83,4.78c0.13,1.74,0.65,3.62,1.78,5.24c0.54,0.83,1.23,1.58,2.02,2.23c0.79,0.66,1.7,1.22,2.69,1.62
						c1.97,0.84,4.28,1.02,6.49,0.5c2.2-0.56,4.17-1.79,5.53-3.45c0.7-0.81,1.25-1.72,1.64-2.68c0.4-0.95,0.67-1.93,0.76-2.91
						c0.25-1.96-0.16-3.86-0.85-5.47c-0.7-1.61-1.79-2.9-2.94-3.85c-2.34-1.92-4.89-2.41-6.56-2.44
						C376.01,282.31,375.08,282.59,375.07,282.52z"/>
				</g>
			</g>
		</g>
		<g>
			<g>
				<g>
					<path style="fill:#EBEBEB;" d="M377.67,268.35c0,0.01-0.07-0.1-0.19-0.33c-0.13-0.25-0.31-0.58-0.53-1.02
						c-0.48-0.94-1.17-2.29-2.08-4.04l0.11,0.05c-2.49,0.63-5.77,1.45-9.74,2.45l0.12-0.15c0.04,1.84,0.08,3.88,0.13,6.07l0,0.11
						l-0.1,0.05c-1.79,0.98-3.57,2.26-5.22,3.86l-0.09,0.08l-0.12-0.04c-1.8-0.59-3.74-1.24-5.76-1.91l0.26-0.09
						c-1.63,2.71-3.37,5.58-5.19,8.6l-0.04-0.3c1.35,1.3,2.85,2.74,4.37,4.21l0.11,0.11l-0.04,0.15c-0.57,1.93-0.94,4.14-0.97,6.4
						l0,0.16l-0.14,0.07c-1.68,0.84-3.54,1.77-5.42,2.72l0.14-0.31c0.75,3.06,1.57,6.37,2.4,9.75l-0.28-0.22
						c1.89-0.04,3.96-0.07,6.07-0.11l0.18,0l0.09,0.16c0.97,1.78,2.27,3.6,3.83,5.21l0.13,0.13l-0.06,0.17
						c-0.6,1.8-1.26,3.77-1.92,5.76l-0.13-0.35c2.72,1.65,5.63,3.41,8.59,5.2l-0.38,0.05c1.33-1.38,2.77-2.87,4.21-4.37l0.13-0.13
						l0.18,0.05c1.97,0.58,4.16,0.94,6.38,0.98l0.01,0l0.19,0.01l0.08,0.17c0.91,1.82,1.81,3.63,2.71,5.43l-0.35-0.16
						c3.3-0.81,6.55-1.6,9.75-2.39l-0.23,0.3c-0.03-2.04-0.07-4.06-0.1-6.07l0-0.18l0.16-0.09c1.92-1.05,3.68-2.34,5.21-3.82
						l0.13-0.13l0.17,0.06c1.95,0.65,3.86,1.29,5.76,1.93l-0.34,0.13c1.78-2.93,3.52-5.79,5.22-8.58l0.05,0.35
						c-1.48-1.43-2.93-2.84-4.36-4.22l-0.12-0.12l0.05-0.16c0.63-2.12,0.95-4.28,0.99-6.4l0-0.16l0.14-0.07
						c1.86-0.93,3.67-1.82,5.43-2.7l-0.13,0.29c-0.83-3.43-1.62-6.67-2.37-9.76l0.23,0.18c-2.13,0.03-4.14,0.06-6.07,0.09l-0.14,0
						l-0.06-0.12c-1.11-2.04-2.41-3.76-3.83-5.24l-0.09-0.09l0.04-0.12c0.71-2.09,1.34-3.97,1.94-5.75l0.08,0.21
						c-3.32-2.03-6.14-3.76-8.56-5.24l0.17-0.02c-1.7,1.73-3.09,3.16-4.24,4.34l-0.04,0.04l-0.06-0.02
						c-2.11-0.63-3.75-0.84-4.83-0.96c-0.52-0.04-0.92-0.08-1.21-0.1C377.8,268.37,377.67,268.36,377.67,268.35
						c0-0.01,0.14-0.01,0.4-0.01c0.27,0,0.68,0.01,1.22,0.05c1.09,0.08,2.73,0.26,4.87,0.87l-0.1,0.03c1.14-1.2,2.51-2.64,4.19-4.39
						l0.08-0.08l0.1,0.06c2.43,1.46,5.27,3.17,8.61,5.17l0.12,0.07l-0.05,0.14c-0.59,1.78-1.21,3.67-1.9,5.76l-0.05-0.2
						c1.44,1.49,2.79,3.24,3.92,5.31l-0.2-0.12c1.93-0.04,3.93-0.08,6.07-0.12l0.19,0l0.05,0.18c0.76,3.08,1.56,6.32,2.41,9.75
						l0.05,0.2l-0.18,0.09c-1.76,0.88-3.56,1.79-5.42,2.72l0.15-0.23c-0.04,2.16-0.36,4.37-1,6.54l-0.07-0.28
						c1.43,1.38,2.89,2.78,4.37,4.21l0.16,0.16l-0.12,0.19c-1.69,2.79-3.42,5.66-5.2,8.59l-0.12,0.2l-0.22-0.07
						c-1.89-0.63-3.81-1.27-5.76-1.92l0.3-0.07c-1.57,1.52-3.37,2.85-5.34,3.92l0.16-0.27c0.04,2,0.07,4.02,0.11,6.07l0,0.24
						l-0.24,0.06c-3.2,0.79-6.46,1.58-9.75,2.39l-0.24,0.06l-0.11-0.22c-0.9-1.79-1.8-3.61-2.71-5.43l0.27,0.17l-0.01,0
						c-2.28-0.04-4.53-0.41-6.55-1.01l0.31-0.08c-1.45,1.5-2.88,2.99-4.22,4.37l-0.17,0.18l-0.21-0.13
						c-2.95-1.79-5.87-3.56-8.58-5.21l-0.21-0.13l0.08-0.23c0.66-1.99,1.32-3.95,1.93-5.76l0.07,0.3c-1.6-1.66-2.93-3.52-3.92-5.34
						l0.26,0.15c-2.1,0.03-4.18,0.07-6.07,0.1l-0.23,0l-0.05-0.22c-0.83-3.39-1.63-6.69-2.38-9.76l-0.05-0.21l0.2-0.1
						c1.89-0.94,3.75-1.86,5.43-2.7l-0.15,0.23c0.05-2.32,0.43-4.57,1.02-6.54l0.07,0.26c-1.52-1.48-3.01-2.92-4.36-4.22l-0.14-0.14
						l0.1-0.17c1.83-3.01,3.58-5.87,5.23-8.57l0.09-0.15l0.17,0.06c2.02,0.68,3.96,1.33,5.75,1.94l-0.2,0.05
						c1.69-1.61,3.51-2.9,5.33-3.89l-0.09,0.16c-0.03-2.19-0.06-4.23-0.08-6.07l0-0.13l0.12-0.03c3.98-0.95,7.27-1.74,9.77-2.33
						l0.08-0.02l0.03,0.07c0.85,1.76,1.51,3.11,1.96,4.05c0.21,0.45,0.38,0.79,0.5,1.05C377.63,268.22,377.68,268.34,377.67,268.35z
						"/>
				</g>
			</g>
		</g>
	</g>
	<g>
		<g>
			<g>
				<g>
					<g>
						<g>
							<g>
								<polygon style="fill:#F5F5F5;" points="56.23,450.45 56.23,481.29 101.33,481.29 151.08,481.29 151.08,450.45 								"/>
							</g>
						</g>
					</g>
				</g>
			</g>
			<g>
				<g>
					<g>
						<g>
							<g>
								<polygon style="fill:#E0E0E0;" points="52.25,441.82 52.25,450.45 154.4,450.45 154.4,441.82 101.33,441.82 								"/>
							</g>
						</g>
					</g>
				</g>
			</g>
			<g>
				<g>
					<g>
						<g>
							<g>
								<polygon style="fill:#E0E0E0;" points="103.32,481.29 151.08,481.29 151.08,450.45 154.4,450.45 154.4,441.82 
									101.33,441.82 101.33,449.65 								"/>
							</g>
						</g>
					</g>
				</g>
			</g>
			<g>
				<g>
					<g>
						<g>
							<g>
								<rect x="69.49" y="455.42" style="fill:#E0E0E0;" width="19.24" height="4.64"/>
							</g>
						</g>
					</g>
				</g>
			</g>
			<g>
				<g>
					<g>
						<g>
							<g>
								<rect x="67.02" y="465.87" style="fill:#FFFFFF;" width="24.7" height="9.8"/>
							</g>
						</g>
					</g>
				</g>
			</g>
		</g>
	</g>
	<g>
		<g>
			<g>
				<g>
					<g>
						<g>
							<g>
								<polygon style="fill:#F5F5F5;" points="70.82,411.02 70.82,441.87 115.93,441.87 165.67,441.87 165.67,411.02 								"/>
							</g>
						</g>
					</g>
				</g>
			</g>
			<g>
				<g>
					<g>
						<g>
							<g>
								<polygon style="fill:#E0E0E0;" points="66.84,402.4 66.84,411.02 168.99,411.02 168.99,402.4 115.93,402.4 								"/>
							</g>
						</g>
					</g>
				</g>
			</g>
			<g>
				<g>
					<g>
						<g>
							<g>
								<polygon style="fill:#E0E0E0;" points="117.92,441.87 165.67,441.87 165.67,411.02 168.99,411.02 168.99,402.4 
									115.93,402.4 115.93,410.22 								"/>
							</g>
						</g>
					</g>
				</g>
			</g>
			<g>
				<g>
					<g>
						<g>
							<g>
								<rect x="84.09" y="416" style="fill:#E0E0E0;" width="19.24" height="4.64"/>
							</g>
						</g>
					</g>
				</g>
			</g>
			<g>
				<g>
					<g>
						<g>
							<g>
								<rect x="81.61" y="426.44" style="fill:#FFFFFF;" width="24.7" height="9.8"/>
							</g>
						</g>
					</g>
				</g>
			</g>
		</g>
	</g>
</g>
<g id="Background_Simple" style="display:none;">
	<path style="display:inline;fill:#EBEBEB;" d="M379.95,97.77c0.51,11.41-6.29,21.97-15.98,28.01c-9.69,6.04-22.66,6.41-32.68,0.93
		c-11.29-6.17-18.63-18.86-30.95-22.59c-9.39-2.84-19.65,0.24-29.26-1.7c-18.14-3.67-28.47-26-22.71-43.58
		c5.76-17.58,23.93-29.13,42.34-31c18.41-1.87,36.8,4.52,52.88,13.67c10.35,5.89,20.19,13.11,27.26,22.7
		C377.9,73.8,381.95,86.03,379.95,97.77"/>
	<path style="display:inline;fill:#EBEBEB;" d="M292.15,306.98c-14.48-10.78-34.42-9.45-52.25-6.62
		c-17.83,2.83-36.82,6.55-53.35-0.7c-13.94-6.11-23.69-19.19-30.07-33.01c-6.38-13.82-9.99-28.74-15.55-42.91
		c-5.56-14.17-13.54-28.07-26.21-36.52c-12.66-8.45-36.56-10.82-48.33-1.17l0,0c-10.03,5.33-17.92,13.98-22.18,24.52
		c-6.82,16.88-12.34,42.16-11.71,56.33c1.93,43.49,14.81,84.68,42.4,118.36c22.94,28.01,67.99,40.09,104.06,43.12
		c36.07,3.03,73.18-9.12,100.47-32.91c12.91-11.25,23.93-25.54,27.64-42.26C310.79,336.49,305.88,317.21,292.15,306.98z"/>
	<path style="display:inline;fill:#EBEBEB;" d="M383.58,282.87c-7.69-6.23-20.49-11.07-33.27-8.76c-0.67,0.11-1.34,0.24-2.01,0.41
		c-0.03,0.01-0.06,0.01-0.09,0.02l0.02,0c-1.5,0.39-2.97,0.92-4.36,1.58c-4.98,2.39-10.47,5.58-14,9.83
		c-4.92,5.91-7.63,13.75-7.57,21.44c0.09,11.19,8.99,20.65,19.08,25.51c9.75,4.7,21.33,6.14,31.54,2.53
		c10.21-3.61,18.65-12.68,20.16-23.4C394.54,301.7,391.69,289.44,383.58,282.87z"/>
</g>
<g id="Floor">
	<g>
		<g>
			<path style="fill:#263238;" d="M480.66,481.29c0,0.14-103.28,0.26-230.64,0.26c-127.41,0-230.67-0.12-230.67-0.26
				c0-0.14,103.25-0.26,230.67-0.26C377.38,481.03,480.66,481.15,480.66,481.29z"/>
		</g>
	</g>
</g>
<g id="Processing">
	<g>
		<g>
			<g>
				<path style="fill-rule:evenodd;clip-rule:evenodd;fill:#0142F9;" d="M86.19,61.42c3.72-2.23,7.68-3.92,11.76-5.06l2.46-11.61
					l19.64-0.28l2.79,11.54c4.11,1.03,8.12,2.6,11.9,4.73l9.95-6.47l14.08,13.69l-6.19,10.12c2.23,3.72,3.92,7.68,5.06,11.76
					l11.61,2.46l0.28,19.64l-11.54,2.79c-1.03,4.11-2.6,8.11-4.73,11.9l6.47,9.95l-13.69,14.08l-10.12-6.19
					c-3.72,2.23-7.68,3.92-11.76,5.06l-2.46,11.61l-19.64,0.28l-2.79-11.54c-4.11-1.03-8.11-2.6-11.9-4.73l-9.95,6.47l-14.08-13.69
					l6.19-10.12c-2.23-3.72-3.92-7.68-5.06-11.76l-11.61-2.46l-0.28-19.64l11.54-2.79c1.03-4.11,2.6-8.11,4.73-11.9l-6.47-9.95
					l13.69-14.08L86.19,61.42L86.19,61.42z"/>
			</g>
		</g>
		<g>
			<g>
				<g>
					<path style="fill:#FFFFFF;" d="M122.63,97.16c-0.09,0.01,0.03-1.52-0.63-4.13c-0.31-1.31-0.93-2.85-1.9-4.48
						c-0.98-1.63-2.39-3.32-4.3-4.76c-1.91-1.42-4.31-2.63-7.08-3.12c-2.75-0.47-5.85-0.38-8.81,0.75c-1.49,0.52-2.92,1.3-4.24,2.28
						c-0.68,0.47-1.28,1.05-1.9,1.62c-0.56,0.62-1.15,1.23-1.64,1.94c-2.06,2.74-3.22,6.26-3.25,9.89c0.03,3.63,1.19,7.16,3.25,9.9
						c0.49,0.71,1.08,1.32,1.64,1.94c0.62,0.56,1.22,1.15,1.9,1.62c1.32,0.99,2.75,1.77,4.24,2.29c2.95,1.13,6.06,1.21,8.81,0.75
						c2.77-0.49,5.17-1.7,7.08-3.12c1.91-1.44,3.32-3.13,4.3-4.76c0.97-1.63,1.59-3.17,1.9-4.48
						C122.66,98.67,122.55,97.15,122.63,97.16c0.01,0,0.01,0.09,0.01,0.28c0,0.21-0.01,0.48-0.02,0.81c0,0.36-0.02,0.8-0.11,1.31
						c-0.07,0.52-0.14,1.12-0.32,1.77c-0.28,1.33-0.88,2.9-1.84,4.58c-0.97,1.67-2.39,3.42-4.32,4.9c-1.93,1.47-4.38,2.73-7.22,3.25
						c-2.82,0.5-6.01,0.43-9.05-0.72c-1.53-0.53-3.01-1.33-4.37-2.34c-0.7-0.48-1.32-1.08-1.96-1.66c-0.58-0.64-1.19-1.27-1.69-2
						c-2.13-2.82-3.33-6.46-3.36-10.2c0.03-3.74,1.24-7.38,3.36-10.2c0.5-0.73,1.11-1.36,1.69-2c0.64-0.58,1.26-1.18,1.96-1.66
						c1.36-1.01,2.84-1.81,4.37-2.34c3.04-1.14,6.23-1.22,9.05-0.72c2.84,0.52,5.29,1.78,7.22,3.25c1.94,1.49,3.35,3.24,4.32,4.9
						c0.96,1.67,1.56,3.25,1.84,4.58c0.19,0.66,0.25,1.26,0.32,1.77c0.09,0.52,0.11,0.96,0.11,1.31c0.01,0.33,0.01,0.6,0.02,0.81
						C122.65,97.06,122.64,97.16,122.63,97.16z"/>
				</g>
			</g>
			<g>
				<g>
					<path style="fill:#FFFFFF;" d="M117.28,109.54c0.1-0.1,3.81,3.44,8.27,7.9c4.47,4.47,8.01,8.17,7.91,8.27
						c-0.1,0.1-3.81-3.44-8.27-7.91C120.72,113.35,117.18,109.64,117.28,109.54z"/>
				</g>
			</g>
		</g>
	</g>
	<g>
		<g>
			<g>
				<path style="fill-rule:evenodd;clip-rule:evenodd;fill:#0142F9;" d="M220.43,135.73c4.78-2.86,9.86-5.03,15.09-6.5l3.16-14.91
					l25.2-0.35l3.58,14.81c5.28,1.32,10.42,3.34,15.27,6.07l12.77-8.3l18.07,17.57l-7.94,12.99c2.86,4.78,5.03,9.86,6.5,15.1
					l14.91,3.16l0.36,25.2l-14.81,3.58c-1.32,5.28-3.34,10.42-6.07,15.27l8.31,12.77l-17.57,18.07l-13-7.94
					c-4.78,2.86-9.86,5.03-15.1,6.5L266,263.71l-25.2,0.36l-3.58-14.81c-5.28-1.32-10.42-3.34-15.27-6.07l-12.77,8.31l-18.07-17.57
					l7.94-12.99c-2.86-4.78-5.03-9.86-6.5-15.1l-14.91-3.16l-0.36-25.2l14.81-3.58c1.32-5.28,3.34-10.42,6.07-15.27l-8.31-12.77
					l17.57-18.07L220.43,135.73L220.43,135.73z"/>
			</g>
		</g>
		<g>
			<g>
				<g>
					<path style="fill:#FFFFFF;" d="M243.81,215.28c0.01,0,0.11-0.01,0.3-0.01c0.21,0,0.5-0.01,0.86-0.02
						c0.78-0.01,1.88-0.02,3.31-0.04c2.89-0.02,7.08-0.05,12.36-0.09l-0.15,0.16c-0.05-2.13-0.11-4.52-0.17-7.07l0-0.12l0.11-0.05
						c3.53-1.61,7.23-4,10.58-7.24c1.67-1.62,3.18-3.54,4.44-5.69c1.29-2.14,2.06-4.64,2.44-7.23c0.59-5.22-0.57-11.01-3.78-15.84
						c-3.15-4.84-8.04-8.81-13.79-11c-4.29-1.63-8.95-1.82-13.24-0.92c-4.32,0.8-8.29,2.72-11.5,5.32c-3.24,2.6-5.51,6.04-6.94,9.59
						c-0.31,0.91-0.7,1.78-0.93,2.69c-0.22,0.91-0.44,1.82-0.66,2.71c-0.31,1.81-0.5,3.6-0.47,5.34c0.04,1.74,0.26,3.43,0.63,5.03
						c0.39,1.6,0.96,3.09,1.62,4.48c1.35,2.77,3.14,5.06,4.99,6.91c3.73,3.7,7.54,5.83,10.32,7.05l0.06,0.03l0,0.06
						c-0.12,1.93-0.2,3.4-0.26,4.41c-0.03,0.48-0.06,0.86-0.08,1.13C243.83,215.14,243.82,215.28,243.81,215.28
						c-0.01,0.01-0.01-0.12,0-0.36c0.01-0.27,0.02-0.64,0.03-1.12c0.04-1.03,0.09-2.52,0.16-4.47l0.06,0.09
						c-2.83-1.19-6.67-3.29-10.47-7c-1.88-1.86-3.71-4.16-5.1-6.97c-0.68-1.4-1.27-2.93-1.67-4.55c-0.39-1.63-0.62-3.34-0.67-5.12
						c-0.03-1.77,0.15-3.59,0.46-5.43c0.22-0.91,0.44-1.82,0.66-2.75c0.23-0.93,0.62-1.82,0.93-2.74c1.45-3.61,3.76-7.15,7.06-9.8
						c3.28-2.65,7.32-4.61,11.72-5.44c4.36-0.92,9.14-0.73,13.52,0.94c5.86,2.23,10.83,6.27,14.04,11.21
						c1.61,2.47,2.77,5.17,3.37,7.94c0.21,0.68,0.27,1.38,0.37,2.07c0.1,0.69,0.22,1.38,0.21,2.07c0.02,0.69,0.06,1.38,0.06,2.06
						c-0.06,0.68-0.12,1.36-0.18,2.03c-0.39,2.66-1.2,5.21-2.52,7.39c-1.29,2.19-2.83,4.13-4.53,5.77
						c-3.42,3.27-7.14,5.64-10.74,7.26l0.11-0.17c0.04,2.56,0.08,4.95,0.12,7.08l0,0.16l-0.16,0c-5.32-0.04-9.54-0.07-12.46-0.09
						c-1.41-0.02-2.51-0.03-3.28-0.04c-0.35-0.01-0.63-0.01-0.83-0.02C243.9,215.29,243.81,215.29,243.81,215.28z"/>
				</g>
			</g>
			<g>
				<g>
					<path style="fill:#FFFFFF;" d="M260.89,219.96c0,0.14-3.87,0.26-8.65,0.26c-4.78,0-8.65-0.11-8.65-0.26
						c0-0.14,3.87-0.26,8.65-0.26C257.02,219.7,260.89,219.82,260.89,219.96z"/>
				</g>
			</g>
			<g>
				<g>
					<path style="fill:#FFFFFF;" d="M255.29,226.5c0.02,0.14-1.35,0.42-3.06,0.36c-1.71-0.05-3.06-0.41-3.04-0.55
						c0.03-0.15,1.38-0.02,3.05,0.03C253.91,226.4,255.28,226.35,255.29,226.5z"/>
				</g>
			</g>
			<g>
				<g>
					<path style="fill:#FFFFFF;" d="M247.34,215.28c-0.01,0-0.01-0.1-0.02-0.29c0-0.22,0-0.49,0-0.84c0.01-0.77,0.03-1.85,0.05-3.22
						c0.07-2.83,0.16-6.86,0.28-11.83c0.07-2.5,0.14-5.23,0.22-8.17c0.02-0.71-0.03-1.46-0.29-2.12c-0.22-0.67-0.86-1.15-1.52-1.01
						c-0.66,0.13-1.14,0.81-1.34,1.51c-0.21,0.71-0.06,1.5,0.28,2.2c0.69,1.41,2.24,2.36,3.87,2.57c1.65,0.24,3.36-0.5,4.5-1.8
						c1.16-1.28,1.83-3.05,1.89-4.84c0.03-0.89-0.07-1.82-0.53-2.56c-0.42-0.72-1.36-1.19-2.12-0.91c-0.76,0.28-1.14,1.26-1.01,2.08
						c0.12,0.86,0.64,1.64,1.2,2.35c1.12,1.42,2.53,2.64,4.17,3.22c0.81,0.29,1.68,0.41,2.51,0.3c0.83-0.13,1.62-0.45,2.28-0.95
						c0.66-0.49,1.19-1.15,1.43-1.9c0.25-0.75,0.22-1.57-0.13-2.25c-0.34-0.68-0.99-1.19-1.71-1.16c-0.71,0.01-1.38,0.49-1.79,1.07
						c-0.83,1.23-0.83,2.84-1.05,4.27c-0.32,2.91-0.53,5.64-0.71,8.13c-0.33,4.95-0.61,8.98-0.8,11.8
						c-0.09,1.36-0.16,2.44-0.22,3.21c-0.03,0.34-0.05,0.62-0.07,0.83c-0.02,0.19-0.03,0.28-0.04,0.28c-0.01,0-0.01-0.1-0.01-0.29
						c0-0.22,0.01-0.49,0.02-0.84c0.03-0.77,0.07-1.85,0.12-3.22c0.12-2.79,0.31-6.83,0.63-11.82c0.17-2.49,0.35-5.22,0.65-8.15
						c0.09-0.73,0.16-1.47,0.29-2.24c0.13-0.76,0.33-1.55,0.82-2.25c0.48-0.67,1.23-1.25,2.16-1.28c0.93-0.04,1.76,0.63,2.14,1.41
						c0.42,0.79,0.46,1.77,0.17,2.62c-0.28,0.86-0.87,1.6-1.6,2.14c-0.72,0.55-1.59,0.91-2.51,1.05c-0.93,0.13-1.87-0.01-2.75-0.32
						c-1.77-0.63-3.24-1.91-4.41-3.38c-0.57-0.73-1.15-1.57-1.31-2.59c-0.15-1,0.27-2.21,1.35-2.64c1.09-0.38,2.21,0.25,2.74,1.12
						c0.54,0.89,0.63,1.91,0.61,2.85c-0.07,1.91-0.78,3.78-2.03,5.16c-1.22,1.4-3.13,2.23-4.94,1.95c-1.77-0.24-3.46-1.26-4.23-2.85
						c-0.37-0.77-0.55-1.7-0.3-2.54c0.24-0.8,0.78-1.64,1.71-1.84c0.45-0.09,0.92,0.03,1.28,0.29c0.37,0.26,0.6,0.64,0.74,1.01
						c0.29,0.76,0.33,1.55,0.31,2.29c-0.1,2.93-0.19,5.67-0.28,8.17c-0.19,4.96-0.34,8.99-0.44,11.82
						c-0.06,1.37-0.11,2.44-0.15,3.21c-0.02,0.34-0.04,0.62-0.05,0.84C247.36,215.19,247.35,215.28,247.34,215.28z"/>
				</g>
			</g>
			<g>
				<g>
					<path style="fill:#FFFFFF;" d="M259.37,223.23c0,0.14-3.14,0.26-7.02,0.26c-3.88,0-7.02-0.12-7.02-0.26
						c0-0.14,3.14-0.26,7.02-0.26C256.23,222.97,259.37,223.09,259.37,223.23z"/>
				</g>
			</g>
		</g>
	</g>
	<g>
		<g>
			<g>
				<g>
					<path style="fill-rule:evenodd;clip-rule:evenodd;fill:#0142F9;" d="M385.94,175.97c3.07-1.91,6.34-3.36,9.73-4.37l1.9-9.7
						l16.35-0.49l2.47,9.57c3.44,0.8,6.79,2.06,9.97,3.78l8.2-5.52l11.9,11.22l-5.02,8.51c1.91,3.07,3.36,6.34,4.37,9.73l9.7,1.9
						l0.49,16.35l-9.57,2.47c-0.8,3.44-2.06,6.79-3.78,9.97l5.52,8.2l-11.21,11.9l-8.51-5.02c-3.07,1.91-6.34,3.36-9.73,4.37
						l-1.9,9.7l-16.35,0.49l-2.47-9.57c-3.44-0.8-6.79-2.06-9.97-3.78l-8.2,5.52l-11.9-11.22l5.02-8.51
						c-1.91-3.07-3.36-6.34-4.37-9.73l-9.7-1.9l-0.49-16.35l9.57-2.47c0.8-3.44,2.06-6.79,3.78-9.97l-5.52-8.2l11.21-11.9
						L385.94,175.97L385.94,175.97z"/>
				</g>
			</g>
		</g>
		<g>
			<g>
				<g>
					<path style="fill:#FFFFFF;" d="M429.09,227.81c0,0.02-0.27,0.04-0.79,0.05c-0.57,0.01-1.33,0.03-2.27,0.05
						c-2.03,0.02-4.87,0.05-8.36,0.08c-7.11,0.02-16.84,0.05-27.59,0.08c-0.67,0-1.34,0-1.97,0l-0.26,0l0-0.26
						c0.03-10.31,0.06-19.55,0.08-26.28c0.03-3.3,0.06-5.98,0.08-7.9c0.02-0.89,0.04-1.6,0.05-2.14c0.02-0.49,0.03-0.74,0.05-0.74
						s0.03,0.26,0.05,0.74c0.01,0.54,0.03,1.25,0.05,2.14c0.02,1.91,0.05,4.6,0.08,7.9c0.02,6.73,0.05,15.97,0.08,26.28l-0.26-0.26
						c0.62,0,1.29,0,1.97,0c10.75,0.03,20.48,0.06,27.59,0.08c3.49,0.03,6.33,0.06,8.36,0.08c0.95,0.02,1.71,0.04,2.27,0.05
						C428.82,227.77,429.09,227.79,429.09,227.81z"/>
				</g>
			</g>
			<g>
				<g>
					<path style="fill:#FFFFFF;" d="M424.54,199.74c0.02,0.03-0.41,0.44-1.22,1.17c-0.88,0.78-2.05,1.8-3.46,3.04
						c-2.94,2.55-7.02,6.04-11.54,9.87l-0.69,0.58l-0.18,0.15l-0.17-0.16c-1.81-1.68-3.54-3.29-5.13-4.77l0.32,0.01
						c-3.02,2.49-5.62,4.63-7.54,6.22c-0.89,0.71-1.62,1.29-2.19,1.75c-0.51,0.4-0.8,0.61-0.82,0.58c-0.02-0.02,0.23-0.27,0.72-0.71
						c0.55-0.48,1.25-1.1,2.1-1.86c1.89-1.62,4.44-3.81,7.42-6.36l0.16-0.14l0.16,0.15c1.6,1.48,3.34,3.07,5.16,4.74l-0.34-0.01
						l0.69-0.58c4.53-3.83,8.65-7.28,11.64-9.76c1.45-1.19,2.66-2.17,3.57-2.91C424.04,200.07,424.52,199.71,424.54,199.74z"/>
				</g>
			</g>
			<g>
				<g>
					<path style="fill:#FFFFFF;" d="M424.54,208.33c-0.07,0-0.13-0.97-0.18-2.56c-0.05-1.58-0.08-3.78-0.08-6.23l0.26,0.26
						c-0.14,0-0.29,0-0.44,0c-2.55,0-4.86-0.03-6.53-0.08c-1.67-0.05-2.7-0.11-2.7-0.18c0-0.07,1.03-0.14,2.7-0.18
						c1.67-0.05,3.98-0.08,6.53-0.08c0.15,0,0.3,0,0.44,0l0.26,0l0,0.26c0,2.45-0.03,4.65-0.08,6.23
						C424.67,207.35,424.61,208.33,424.54,208.33z"/>
				</g>
			</g>
		</g>
	</g>
	<g>
		<g>
			<g>
				<path style="fill:#263238;" d="M160.02,229.24c-0.14,0.05-0.66-1.2-1.16-2.78c-0.51-1.58-0.8-2.9-0.66-2.94
					c0.14-0.04,0.66,1.2,1.16,2.78C159.86,227.87,160.16,229.19,160.02,229.24z"/>
			</g>
		</g>
		<g>
			<g>
				<path style="fill:#263238;" d="M170.64,250.64c-0.11,0.08-1.72-2.09-3.37-4.96c-1.66-2.88-2.72-5.35-2.6-5.41
					c0.13-0.07,1.4,2.29,3.05,5.15C169.36,248.27,170.76,250.55,170.64,250.64z"/>
			</g>
		</g>
		<g>
			<g>
				<path style="fill:#263238;" d="M186.24,268.71c-0.09,0.11-2.19-1.58-4.52-3.95c-2.33-2.37-3.97-4.5-3.87-4.59
					c0.11-0.1,1.93,1.87,4.24,4.22C184.4,266.75,186.34,268.6,186.24,268.71z"/>
			</g>
		</g>
		<g>
			<g>
				<path style="fill:#263238;" d="M206.02,282.1c-0.06,0.13-2.54-0.93-5.4-2.61c-2.87-1.67-5.02-3.3-4.94-3.41
					c0.08-0.12,2.35,1.31,5.2,2.96C203.72,280.7,206.08,281.96,206.02,282.1z"/>
			</g>
		</g>
		<g>
			<g>
				<path style="fill:#263238;" d="M228.72,289.42c-0.02,0.14-2.68-0.26-5.93-0.93c-3.19-0.9-5.75-1.74-5.7-1.88
					c0.05-0.14,2.65,0.48,5.82,1.37C226.14,288.65,228.75,289.27,228.72,289.42z"/>
			</g>
		</g>
		<g>
			<g>
				<path style="fill:#263238;" d="M252.59,289.94c0.02,0.14-2.64,0.56-5.96,0.71c-3.32,0.15-6-0.04-6-0.18
					c0-0.15,2.68-0.19,5.97-0.34C249.9,289.99,252.57,289.8,252.59,289.94z"/>
			</g>
		</g>
		<g>
			<g>
				<path style="fill:#263238;" d="M275.92,284.79c0.05,0.13-2.45,1.13-5.65,2.02c-3.19,0.9-5.85,1.34-5.88,1.21
					c-0.03-0.14,2.56-0.81,5.74-1.71C273.31,285.42,275.87,284.65,275.92,284.79z"/>
			</g>
		</g>
		<g>
			<g>
				<path style="fill:#263238;" d="M297.57,274.65c0.07,0.12-2.14,1.65-5.06,3.22c-2.92,1.57-5.42,2.58-5.47,2.46
					c-0.06-0.13,2.32-1.35,5.23-2.91C295.16,275.85,297.49,274.53,297.57,274.65z"/>
			</g>
		</g>
		<g>
			<g>
				<path style="fill:#263238;" d="M316.12,259.62c0.1,0.09-1.63,2.16-4.07,4.41c-2.44,2.26-4.62,3.83-4.71,3.72
					c-0.09-0.12,1.94-1.86,4.36-4.1C314.13,261.42,316.01,259.52,316.12,259.62z"/>
			</g>
		</g>
		<g>
			<g>
				<path style="fill:#263238;" d="M329.33,239.77c0.12,0.05-0.86,2.56-2.46,5.47c-1.59,2.92-3.2,5.08-3.32,5
					c-0.12-0.08,1.28-2.36,2.86-5.25C328,242.11,329.19,239.71,329.33,239.77z"/>
			</g>
		</g>
		<g>
			<g>
				<path style="fill:#263238;" d="M337.53,217.29c0.14,0.04-0.59,2.63-1.62,5.77c-1.03,3.14-1.98,5.65-2.12,5.6
					c-0.14-0.05,0.59-2.63,1.62-5.77C336.44,219.76,337.39,217.25,337.53,217.29z"/>
			</g>
		</g>
		<g>
			<g>
				<path style="fill:#263238;" d="M345.18,194.61c0.16,0.06-0.77,2.58-1.84,5.7c-1.08,3.12-2.07,5.61-2.21,5.57
					s0.63-2.61,1.72-5.74c0.52-1.57,1.1-2.95,1.53-3.95C344.82,195.19,345.12,194.59,345.18,194.61z"/>
			</g>
		</g>
		<g>
			<g>
				<path style="fill:#263238;" d="M355.79,173.19c0.12,0.08-1.24,2.38-2.83,5.27c-1.6,2.88-2.85,5.25-2.99,5.19
					c-0.13-0.06,0.92-2.54,2.53-5.44C354.11,175.31,355.68,173.11,355.79,173.19z"/>
			</g>
		</g>
		<g>
			<g>
				<path style="fill:#263238;" d="M371.76,155.52c0.09,0.12-2.01,1.78-4.42,4.02c-2.42,2.23-4.25,4.19-4.36,4.09
					c-0.1-0.09,1.57-2.21,4.01-4.47C369.42,156.89,371.68,155.41,371.76,155.52z"/>
			</g>
		</g>
		<g>
			<g>
				<path style="fill:#263238;" d="M393.32,145.42c0.04,0.15-2.52,0.93-5.62,2.04c-3.1,1.11-5.57,2.15-5.63,2.01
					c-0.06-0.12,2.33-1.38,5.46-2.5C390.65,145.85,393.29,145.29,393.32,145.42z"/>
			</g>
		</g>
		<g>
			<g>
				<path style="fill:#263238;" d="M417.03,142.78c-0.01,0.15-2.68,0.08-5.98,0.2c-3.29,0.11-5.96,0.33-5.98,0.18
					c-0.02-0.14,2.64-0.59,5.96-0.7C414.35,142.34,417.04,142.64,417.03,142.78z"/>
			</g>
		</g>
		<g>
			<g>
				<path style="fill:#263238;" d="M440.1,148.67c-0.06,0.14-2.55-0.85-5.65-1.95c-3.1-1.11-5.66-1.9-5.62-2.05
					c0.03-0.13,2.67,0.44,5.8,1.56C437.75,147.34,440.16,148.55,440.1,148.67z"/>
			</g>
		</g>
		<g>
			<g>
				<path style="fill:#263238;" d="M460.46,161.13c-0.1,0.11-2.2-1.54-4.89-3.45c-2.68-1.91-4.93-3.38-4.85-3.5
					c0.07-0.12,2.45,1.15,5.15,3.08C458.58,159.18,460.55,161.02,460.46,161.13z"/>
			</g>
		</g>
		<g>
			<g>
				<path style="fill:#263238;" d="M472.47,174.4c-0.12,0.08-0.94-0.98-1.92-2.3c-0.98-1.33-1.75-2.42-1.64-2.52
					c0.11-0.09,1.07,0.87,2.06,2.21C471.96,173.12,472.59,174.32,472.47,174.4z"/>
			</g>
		</g>
	</g>
	<g>
		<g>
			<path style="fill:none;stroke:#4E585D;stroke-width:0.05;stroke-miterlimit:10;" d="M208,275.88"/>
		</g>
	</g>
	<g>
		<g>
			<path style="fill:#263238;" d="M32.51,88.66c0,0,0.05-0.31,0.19-0.91c0.14-0.61,0.34-1.49,0.6-2.65c0.56-2.32,1.59-5.7,3.33-9.89
				c1.84-4.14,4.44-9.09,8.28-14.27c3.83-5.18,8.87-10.6,15.26-15.62c6.44-4.92,14.19-9.53,23.25-12.58
				c4.53-1.51,9.33-2.72,14.37-3.47c5.03-0.72,10.28-1.05,15.64-0.91c5.37,0.13,10.86,0.8,16.34,2.07
				c5.48,1.26,10.95,3.12,16.19,5.72c5.24,2.59,10.21,5.95,14.81,9.86c4.59,3.92,8.78,8.46,12.29,13.57
				c3.52,5.11,6.27,10.65,8.24,16.36c1.97,5.71,3.16,11.58,3.75,17.39c0.11,1.46,0.27,2.91,0.33,4.35c0.03,1.45,0.07,2.89,0.1,4.32
				c0.02,1.43-0.08,2.86-0.11,4.28c-0.13,1.42-0.22,2.83-0.41,4.22c-0.73,5.58-2.24,10.93-4.3,15.89c-2.07,4.96-4.57,9.57-7.1,13.97
				c-2.57,4.38-5.06,8.63-7.46,12.74c-4.8,8.23-7.31,16.86-8.73,24.8c-0.71,3.98-1.16,7.81-1.42,11.44
				c-0.28,3.63-0.39,7.07-0.41,10.28c0,6.43,0.08,11.98,0.78,16.45c0.66,4.48,1.57,7.88,2.28,10.15c0.37,1.13,0.68,1.99,0.91,2.55
				c0.11,0.29,0.21,0.49,0.27,0.64c0.06,0.14,0.08,0.22,0.08,0.22s-0.6-1.11-1.36-3.37c-0.75-2.26-1.69-5.67-2.39-10.16
				c-0.73-4.49-0.84-10.05-0.87-16.48c0-3.22,0.11-6.66,0.37-10.31c0.25-3.64,0.68-7.49,1.38-11.48c1.4-7.97,3.9-16.66,8.71-24.95
				c2.4-4.11,4.88-8.37,7.44-12.75c2.52-4.4,5.01-8.99,7.06-13.92c2.03-4.93,3.52-10.24,4.25-15.78c0.18-1.38,0.27-2.79,0.4-4.19
				c0.03-1.41,0.12-2.83,0.11-4.25c-0.03-1.43-0.07-2.86-0.1-4.3c-0.07-1.44-0.23-2.88-0.33-4.33c-0.59-5.78-1.77-11.61-3.73-17.27
				c-1.95-5.67-4.68-11.16-8.18-16.23c-3.49-5.07-7.64-9.58-12.2-13.47c-4.57-3.88-9.5-7.22-14.7-9.79
				c-5.2-2.58-10.63-4.43-16.08-5.69c-5.44-1.27-10.9-1.94-16.24-2.07c-5.34-0.15-10.55,0.17-15.56,0.88
				c-5.01,0.74-9.79,1.94-14.29,3.43c-9.02,3.02-16.74,7.58-23.17,12.46c-6.37,4.97-11.42,10.36-15.25,15.5
				c-3.85,5.15-6.46,10.06-8.32,14.18c-1.76,4.17-2.82,7.53-3.41,9.83c-0.28,1.15-0.5,2.03-0.65,2.63
				C32.59,88.36,32.51,88.66,32.51,88.66z"/>
		</g>
	</g>
</g>
<g id="Character">
	<g>
		<g>
			<g>
				<g>
					<g>
						<path style="fill:#E8505B;" d="M275.9,456.39l15.01,5.26l-0.16,14.43c-7.18,2.03-8.19,5.66-8.19,5.66l15.02-0.34l13.07-26.57
							l-10.34-6.76l-19.32-8.45"/>
					</g>
					<g style="opacity:0.6;">
						<polygon style="fill:#FFFFFF;" points="310.63,454.83 297.57,481.4 282.55,481.74 284.19,479.45 296.39,478.5 308.44,453.39 
													"/>
					</g>
				</g>
				<g>
					<g>
						<path style="fill:#263238;" d="M290.69,469.47c0.11,0.15,0.97-0.36,2.13-0.35c1.16-0.03,2.03,0.47,2.14,0.32
							c0.14-0.12-0.73-1-2.14-0.98C291.4,468.46,290.55,469.36,290.69,469.47z"/>
					</g>
				</g>
				<g>
					<g>
						<path style="fill:#263238;" d="M290.85,465.89c0.15,0.1,0.8-0.8,1.99-1.06c1.19-0.27,2.16,0.27,2.26,0.11
							c0.05-0.07-0.13-0.32-0.56-0.54c-0.42-0.22-1.11-0.38-1.84-0.22c-0.74,0.17-1.29,0.6-1.58,0.98
							C290.83,465.55,290.78,465.85,290.85,465.89z"/>
					</g>
				</g>
				<g>
					<g>
						<path style="fill:#263238;" d="M290.65,461.3c0.17,0.08,0.66-0.8,1.7-1.19c1.03-0.4,1.98-0.07,2.06-0.23
							c0.04-0.08-0.16-0.28-0.58-0.43c-0.41-0.15-1.06-0.2-1.71,0.05c-0.65,0.25-1.1,0.72-1.31,1.1
							C290.58,460.98,290.57,461.27,290.65,461.3z"/>
					</g>
				</g>
				<g>
					<g>
						<path style="fill:#263238;" d="M289.55,461.29c0.18-0.05,0.07-0.99,0.52-2.01c0.42-1.03,1.18-1.6,1.09-1.76
							c-0.05-0.17-1.17,0.25-1.7,1.51C288.92,460.28,289.39,461.37,289.55,461.29z"/>
					</g>
				</g>
				<g>
					<g>
						<path style="fill:#263238;" d="M287.77,459.6c0.09,0.01,0.22-0.77,0.35-2.02c0.07-0.72,0.13-1.45,0.2-2.2
							c0.01-0.41,0.12-0.83,0-1.4c-0.07-0.28-0.24-0.57-0.53-0.75c-0.29-0.2-0.76-0.16-1.02,0.04c-0.52,0.41-0.67,0.88-0.85,1.33
							c-0.16,0.46-0.24,0.92-0.27,1.36c-0.05,0.88,0.14,1.67,0.4,2.27c0.54,1.22,1.29,1.66,1.32,1.61c0.09-0.08-0.51-0.62-0.88-1.77
							c-0.18-0.57-0.3-1.28-0.23-2.06c0.04-0.39,0.13-0.79,0.27-1.18c0.15-0.38,0.36-0.83,0.62-1.01c0.13-0.08,0.21-0.08,0.31-0.02
							c0.11,0.06,0.21,0.2,0.25,0.35c0.09,0.32,0.02,0.78,0.02,1.2c-0.02,0.75-0.04,1.48-0.06,2.21
							C287.64,458.81,287.68,459.59,287.77,459.6z"/>
					</g>
				</g>
				<g>
					<g>
						<path style="fill:#263238;" d="M287.53,460.25c0.06-0.04-0.38-0.7-1.54-1.07c-1.11-0.35-3.07-0.27-4.26,1.52
							c-0.06,0.17-0.05,0.41,0.07,0.58c0.11,0.18,0.26,0.27,0.39,0.32c0.27,0.11,0.5,0.12,0.7,0.14c0.42,0.04,0.84,0.03,1.22,0
							c0.78-0.07,1.45-0.27,1.99-0.51c1.08-0.47,1.57-1.02,1.52-1.08c-0.06-0.09-0.64,0.31-1.69,0.64c-0.52,0.16-1.16,0.3-1.87,0.34
							c-0.36,0.02-0.73,0.01-1.11-0.03c-0.2-0.03-0.39-0.04-0.51-0.1c-0.13-0.08-0.09-0.05-0.09-0.1c0.01-0.07,0.16-0.23,0.3-0.36
							c0.14-0.13,0.29-0.25,0.44-0.35c0.31-0.21,0.64-0.36,0.96-0.47c0.66-0.21,1.3-0.2,1.82-0.1
							C286.92,459.85,287.46,460.34,287.53,460.25z"/>
					</g>
				</g>
				<g style="opacity:0.6;">
					<path style="fill:#FFFFFF;" d="M298.65,454.64c0.02,0.98,0.84,1.76,1.82,1.74c0.98-0.02,1.76-0.84,1.74-1.82
						c-0.02-0.98-0.84-1.76-1.82-1.74C299.4,452.84,298.62,453.66,298.65,454.64z"/>
				</g>
			</g>
		</g>
		<g>
			<g>
				<g>
					<path style="fill:#E8505B;" d="M198.89,450.35l0.2,19.66c0,0-19.92,6.81-20.23,10.45l38.14,0.97l0.94-30.65L198.89,450.35z"/>
				</g>
				<g style="opacity:0.6;">
					<g>
						<path style="fill:#FFFFFF;" d="M210.93,468.66c0.73,0.22,1.22,1.06,1.03,1.8s-1.04,1.25-1.78,1.04
							c-0.74-0.21-1.35-1.2-1.08-1.92c0.27-0.72,1.31-1.25,1.97-0.87"/>
					</g>
				</g>
				<g style="opacity:0.6;">
					<path style="fill:#FFFFFF;" d="M217,481.43l-0.03-3.09l-36.56,0.22c0,0-1.72,0.7-1.56,1.9L217,481.43z"/>
				</g>
				<g>
					<g>
						<path style="fill:#263238;" d="M198.48,469.8c0,0.19,0.93,0.29,1.83,0.92c0.92,0.6,1.37,1.42,1.54,1.35
							c0.17-0.03-0.08-1.15-1.18-1.89C199.58,469.44,198.45,469.63,198.48,469.8z"/>
					</g>
				</g>
				<g>
					<g>
						<path style="fill:#263238;" d="M194.44,471.36c-0.05,0.18,0.75,0.52,1.36,1.32c0.64,0.79,0.77,1.64,0.96,1.64
							c0.17,0.03,0.33-1.05-0.45-2.04C195.54,471.28,194.45,471.18,194.44,471.36z"/>
					</g>
				</g>
				<g>
					<g>
						<path style="fill:#263238;" d="M192.05,476.08c0.17,0.04,0.45-0.88,0-1.91c-0.44-1.04-1.31-1.46-1.4-1.31
							c-0.11,0.15,0.44,0.71,0.8,1.57C191.83,475.27,191.86,476.06,192.05,476.08z"/>
					</g>
				</g>
				<g>
					<g>
						<path style="fill:#263238;" d="M198.94,465.32c0.07,0.17,0.93-0.06,1.99,0.03c1.05,0.08,1.86,0.45,1.96,0.29
							c0.11-0.13-0.67-0.84-1.91-0.94C199.74,464.6,198.85,465.17,198.94,465.32z"/>
					</g>
				</g>
			</g>
			<g style="opacity:0.3;">
				<polygon points="198.94,454.25 198.97,457.75 217.72,458.06 217.82,454.9 				"/>
			</g>
			<g>
				<g>
					<path style="fill:#263238;" d="M198.97,461.35c0,0.08,0.73,0.21,1.91,0.04c0.59-0.09,1.28-0.26,2.01-0.56
						c0.37-0.15,0.74-0.34,1.11-0.55c0.18-0.11,0.39-0.22,0.59-0.43c0.21-0.19,0.34-0.68,0.11-0.99c-0.19-0.3-0.53-0.43-0.81-0.45
						c-0.28-0.02-0.51,0.03-0.72,0.08c-0.43,0.09-0.83,0.22-1.2,0.38c-0.74,0.31-1.34,0.72-1.79,1.11c-0.91,0.8-1.23,1.48-1.16,1.52
						c0.08,0.06,0.53-0.51,1.45-1.16c0.46-0.33,1.04-0.66,1.73-0.92c0.34-0.13,0.71-0.23,1.11-0.31c0.41-0.1,0.75-0.09,0.85,0.09
						c0.04,0.07,0.04,0.1-0.05,0.21c-0.09,0.11-0.26,0.21-0.43,0.32c-0.34,0.21-0.69,0.39-1.02,0.55c-0.67,0.31-1.32,0.52-1.86,0.66
						C199.69,461.22,198.97,461.25,198.97,461.35z"/>
				</g>
			</g>
			<g>
				<g>
					<path style="fill:#263238;" d="M199.2,461.62c0.07,0.03,0.45-0.63,0.55-1.83c0.05-0.6,0-1.32-0.21-2.1
						c-0.11-0.39-0.26-0.78-0.46-1.17c-0.21-0.38-0.47-0.89-1.19-1c-0.38-0.02-0.7,0.26-0.81,0.51c-0.13,0.25-0.16,0.48-0.21,0.7
						c-0.08,0.44-0.08,0.88-0.03,1.29c0.1,0.81,0.41,1.5,0.77,1.99c0.72,1.01,1.49,1.25,1.51,1.19c0.06-0.09-0.58-0.47-1.12-1.43
						c-0.27-0.48-0.5-1.1-0.56-1.81c-0.03-0.35-0.01-0.73,0.06-1.1c0.07-0.4,0.23-0.73,0.38-0.68c0.19,0,0.5,0.32,0.65,0.64
						c0.19,0.35,0.33,0.7,0.45,1.05c0.22,0.7,0.31,1.36,0.32,1.92C199.32,460.9,199.1,461.59,199.2,461.62z"/>
				</g>
			</g>
		</g>
		<g>
			<g>
				<g>
					<polygon style="fill:#263238;" points="287.55,440.33 243.63,424 289.8,417.52 292.12,395.03 205.79,402.56 193.6,420.12 
						196.81,442.14 280.92,463.52 					"/>
				</g>
				<g>
					<path style="fill:#263238;" d="M194.43,456.07l-4.2-80.37c0.23-7.83,4.49-14.98,11.27-18.9l0,0c5.6-3.24,12.33-3.93,18.48-1.88
						l56.01,18.67l30.74,7.9c0,0,5.24,12.92,2.16,22.95c-3.01,9.82-13.78,16.36-23.25,13.55c-11.77-3.49-65.78-26.72-65.78-26.72
						v65.45L194.43,456.07z"/>
				</g>
				<g>
					<g>
						<path style="fill:#455A64;" d="M284.82,418.21c0,0.01-0.12-0.03-0.33-0.11c-0.24-0.09-0.56-0.22-0.96-0.37
							c-0.87-0.35-2.1-0.84-3.67-1.47c-3.21-1.31-7.81-3.18-13.47-5.49c-11.38-4.7-27.06-11.17-44.37-18.31
							c-0.77-0.32-1.54-0.64-2.26-0.94l0.36-0.24c-0.03,18.18-0.06,34.53-0.08,46.37c-0.03,5.88-0.06,10.64-0.08,13.97
							c-0.02,1.62-0.04,2.89-0.05,3.79c-0.01,0.41-0.02,0.74-0.03,0.98c-0.01,0.22-0.02,0.34-0.03,0.34c-0.01,0-0.02-0.11-0.03-0.34
							c-0.01-0.25-0.01-0.57-0.03-0.98c-0.01-0.9-0.03-2.17-0.05-3.79c-0.02-3.32-0.05-8.08-0.08-13.97
							c-0.02-11.84-0.05-28.19-0.08-46.37l0-0.39l0.36,0.15c0.71,0.3,1.48,0.62,2.26,0.94c17.29,7.2,32.95,13.72,44.31,18.45
							c5.64,2.38,10.21,4.3,13.41,5.65c1.56,0.67,2.77,1.19,3.64,1.56c0.39,0.17,0.7,0.31,0.94,0.42
							C284.72,418.15,284.83,418.2,284.82,418.21z"/>
					</g>
				</g>
				<g>
					<g>
						<path style="fill:#455A64;" d="M233.09,418.3c0.02-0.13,2.77,0.37,5.75,2.03c2.99,1.64,4.87,3.72,4.77,3.8
							c-0.11,0.12-2.11-1.74-5.03-3.35C235.69,419.16,233.05,418.46,233.09,418.3z"/>
					</g>
				</g>
			</g>
			<g>
				<g>
					<path style="fill:#455A64;" d="M214.98,380.4c0.12-0.07,1.56,2.31,2.96,5.44c1.4,3.12,2.22,5.78,2.09,5.83
						c-0.14,0.05-1.17-2.51-2.56-5.61C216.08,382.95,214.85,380.48,214.98,380.4z"/>
				</g>
			</g>
		</g>
		<polygon style="fill:#FFBE9D;" points="215.1,344.99 205.2,343.14 194.79,353.75 196.71,360.51 208.85,356.04 		"/>
		<g>
			<g>
				<path style="fill:#EB996E;" d="M178.48,227.16l-2.68,0.23c0,0-4.83,0.79-4.83,0.9c0,0.11-2.12,3.07-2.13,3.08l-1.94,3
					c0,0,1.57,0.58,2.71-0.5l-0.68,1.51c0,0,2.21,0.96,3.73-1.45c0.86-1.36,1.61-2.37,2.1-2.99l0.88-0.08
					c0.07,0.18,3.46,4.96,3.53,4.85c0.07-0.11,2.89-2.83,2.89-2.83L178.48,227.16z"/>
			</g>
			<g>
				<path style="fill:#FFBE9D;" d="M185.67,247.98l0.79-14.84l-7.52-8.52l-8.27,0.5l-3.38,2.36c0.17,0.82,2.52,1.38,5.05,0.65
					c2.45-0.71,5.21-0.18,5.21-0.18l3.18,5.55l-2.1,2.32l2.7,14.23L185.67,247.98z"/>
			</g>
			<g>
				<path style="fill:#263238;" d="M163.72,228.43h26.88c0.68,0,1.23,0.55,1.23,1.23l0,0c0,0.68-0.55,1.23-1.23,1.23h-26.88
					l-2.64-1.23L163.72,228.43z"/>
			</g>
			<g>
				<path style="fill:#FFBE9D;" d="M177.33,251.97l-2.74-6.73c-0.35-0.86-0.51-1.77-0.46-2.7c0.12-2.42,0.3-7.28-0.07-8.39
					c-0.5-1.5-2.51-6.64-1.38-7.39s2.69-1,3.79,2c1.1,3.01,4.48,9.52,4.48,9.52l2.56,10.73L177.33,251.97z"/>
			</g>
			<g>
				<g>
					<path style="fill:#EB996E;" d="M180.61,237.62c-0.06,0.03-0.65-1.07-1.56-2.87c-0.9-1.78-2.12-4.37-3.42-7.05
						c-0.37-0.6-0.98-1.05-1.59-1.04c-0.62,0.01-1.19,0.45-1.34,1c-0.17,0.56-0.05,1.19,0.05,1.76c0.11,0.58,0.23,1.11,0.36,1.59
						c0.52,1.93,1.07,3.06,1,3.09c-0.03,0.01-0.2-0.25-0.46-0.76c-0.25-0.51-0.58-1.26-0.89-2.23c-0.15-0.49-0.3-1.02-0.43-1.61
						c-0.12-0.58-0.29-1.24-0.09-1.98c0.2-0.75,0.94-1.34,1.78-1.37c0.88-0.02,1.61,0.58,2.04,1.26c1.39,2.84,2.49,5.32,3.32,7.18
						C180.2,236.43,180.67,237.58,180.61,237.62z"/>
				</g>
			</g>
		</g>
		<g>
			<g>
				<polygon style="fill:#FFBE9D;" points="305.88,381.31 303.14,376.5 273.82,369.16 277.28,375.12 				"/>
			</g>
			<g>
				<path style="fill:#0142F9;" d="M174.78,251.97l18.45,43.72c1.74,4.13,5.05,7.4,9.19,9.1l39.81,16.35l9.27-25.64l-38.77-13.73
					l-25.18-35.9L174.78,251.97z"/>
			</g>
			<g>
				<path style="fill:#0142F9;" d="M234.72,295.92c0.04,1.03-4.3,32.84-4.3,39.33c0,6.5,12.44,13.55,12.44,13.55l13.63,28.93h48.53
					l-16.59-31.15l-7.5-24.96c-2.84-9.46-8.02-18.05-15.06-24.98l-8.1-5.42L234.72,295.92z"/>
			</g>
			<g>
				<path style="fill:#0142F9;" d="M248.81,321.04l8.15,34.2l-41.11-11.58l-7.01,12.38l53.49,24.36c6.59,3,14.38,0.88,18.54-5.05
					l0,0c2.52-3.59,3.35-8.11,2.26-12.37l-11.98-46.8c-1.65-6.44-8.42-10.13-14.73-8.01l0,0C251.06,310,247.82,315.46,248.81,321.04
					z"/>
			</g>
			<g>
				<g>
					<path style="fill:#263238;" d="M242.86,348.81c-0.01,0.02-0.17-0.05-0.47-0.2c-0.3-0.15-0.74-0.38-1.3-0.69
						c-1.11-0.63-2.7-1.59-4.51-2.99c-1.77-1.42-3.91-3.25-5.31-6.03c-1.32-2.85-1.22-6.35-0.74-9.78c0.5-3.46,1.21-6.68,1.63-9.66
						c0.46-2.97,0.77-5.66,0.94-7.93c0.17-2.27,0.2-4.1,0.2-5.38c0-1.27-0.04-1.97,0-1.98c0.02,0,0.05,0.17,0.08,0.51
						c0.04,0.33,0.08,0.83,0.12,1.46c0.07,1.27,0.1,3.12-0.03,5.4c-0.12,2.28-0.4,4.99-0.83,7.97c-0.39,2.99-1.09,6.24-1.59,9.66
						c-0.48,3.4-0.56,6.8,0.66,9.5c1.3,2.66,3.38,4.51,5.1,5.94c1.76,1.42,3.31,2.42,4.38,3.1
						C242.27,348.42,242.88,348.78,242.86,348.81z"/>
				</g>
			</g>
			<g>
				<g>
					<path style="fill:#263238;" d="M265.53,311.96c-0.07,0.15-2.38-1.14-5.54-1.33c-3.16-0.24-5.62,0.73-5.67,0.57
						c-0.08-0.1,2.4-1.33,5.7-1.09C263.33,310.32,265.62,311.88,265.53,311.96z"/>
				</g>
			</g>
			<g>
				<g>
					<path style="fill:#263238;" d="M259.97,293.52c0.02,0.03-0.24,0.32-0.74,0.83c-0.5,0.51-1.24,1.23-2.18,2.1
						c-1.87,1.74-4.52,4.08-7.56,6.52c-3.04,2.44-5.9,4.52-8.01,5.96c-1.05,0.72-1.92,1.29-2.52,1.67
						c-0.61,0.38-0.95,0.57-0.97,0.54c-0.02-0.03,0.29-0.28,0.86-0.71c0.66-0.49,1.47-1.09,2.43-1.8c2.05-1.52,4.86-3.64,7.9-6.07
						c3.03-2.43,5.71-4.72,7.64-6.39c0.9-0.78,1.66-1.44,2.29-1.98C259.63,293.74,259.95,293.49,259.97,293.52z"/>
				</g>
			</g>
			<g>
				<g>
					<path style="fill:#263238;" d="M212.72,281.86c0.05,0.14-1.44,0.78-3.09,1.86c-1.66,1.08-2.84,2.19-2.95,2.08
						c-0.1-0.09,0.94-1.4,2.66-2.52C211.05,282.16,212.68,281.73,212.72,281.86z"/>
				</g>
			</g>
			<g>
				<g>
					<g>
						<path style="fill:#FAFAFA;" d="M252.75,336.54c0.01,0.04-0.31,0.14-0.89,0.29c-0.58,0.16-1.45,0.32-2.52,0.44
							c-1.08,0.13-2.37,0.17-3.8,0.1c-1.43-0.09-3-0.3-4.61-0.7c-1.61-0.41-3.09-0.96-4.39-1.56c-1.29-0.62-2.42-1.26-3.3-1.88
							c-0.89-0.62-1.58-1.16-2.01-1.58c-0.44-0.41-0.68-0.65-0.65-0.68c0.06-0.07,1.06,0.81,2.87,1.95c1.8,1.14,4.47,2.45,7.62,3.25
							c3.16,0.78,6.13,0.89,8.25,0.73C251.43,336.75,252.73,336.45,252.75,336.54z"/>
					</g>
				</g>
				<g>
					<g>
						<path style="fill:#FAFAFA;" d="M255.53,351.58c0.01,0.06-0.69,0.25-1.84,0.34c-1.15,0.09-2.77,0.05-4.51-0.3
							c-1.74-0.36-3.25-0.95-4.27-1.49c-1.03-0.54-1.6-0.98-1.57-1.03c0.08-0.15,2.53,1.33,5.94,2.01
							C252.68,351.81,255.52,351.41,255.53,351.58z"/>
					</g>
				</g>
				<g>
					<g>
						<path style="fill:#FAFAFA;" d="M276.79,342.24c0.02,0.03-0.26,0.19-0.76,0.46c-0.5,0.27-1.26,0.61-2.21,0.99
							c-1.9,0.76-4.62,1.59-7.72,2.02c-3.1,0.43-5.95,0.37-7.98,0.15c-1.02-0.11-1.84-0.23-2.39-0.36c-0.56-0.12-0.86-0.2-0.86-0.23
							c0.01-0.08,1.26,0.1,3.28,0.22c2.02,0.12,4.82,0.12,7.88-0.3c3.06-0.43,5.76-1.18,7.67-1.85
							C275.6,342.68,276.75,342.16,276.79,342.24z"/>
					</g>
				</g>
				<g>
					<g>
						<path style="fill:#FAFAFA;" d="M273.01,325.49c-0.02,0.08-1.27-0.15-3.31-0.4c-2.04-0.24-4.88-0.45-8.01-0.34
							c-3.13,0.12-5.95,0.52-7.96,0.92c-2.02,0.39-3.25,0.71-3.28,0.63c-0.01-0.03,0.29-0.15,0.84-0.34
							c0.55-0.19,1.35-0.42,2.36-0.66c2.01-0.49,4.85-0.96,8.02-1.08c3.17-0.11,6.03,0.15,8.08,0.5c1.02,0.17,1.84,0.34,2.4,0.49
							C272.71,325.35,273.01,325.45,273.01,325.49z"/>
					</g>
				</g>
				<g>
					<g>
						<path style="fill:#FAFAFA;" d="M281.47,372.28c-0.01,0.03-0.42-0.05-1.17-0.23c-0.75-0.17-1.81-0.5-3.1-0.96
							c-2.58-0.92-6.05-2.54-9.48-4.95c-3.43-2.42-6.13-5.13-7.88-7.24c-0.87-1.06-1.54-1.95-1.95-2.59c-0.42-0.64-0.64-1-0.61-1.02
							c0.08-0.05,1.04,1.33,2.85,3.37c1.8,2.04,4.5,4.67,7.9,7.06c3.4,2.38,6.79,4.03,9.32,5.03
							C279.86,371.75,281.49,372.19,281.47,372.28z"/>
					</g>
				</g>
				<g>
					<g>
						<path style="fill:#FAFAFA;" d="M244.6,371.76c-0.06,0-0.18-1.08-0.12-2.85c0.05-1.76,0.33-4.19,1.01-6.8
							c0.69-2.61,1.64-4.86,2.46-6.42c0.82-1.56,1.45-2.45,1.5-2.42c0.07,0.04-0.45,0.99-1.17,2.58c-0.72,1.58-1.61,3.83-2.28,6.4
							c-0.67,2.57-1,4.96-1.15,6.69C244.7,370.68,244.69,371.76,244.6,371.76z"/>
					</g>
				</g>
				<g>
					<g>
						<path style="fill:#FAFAFA;" d="M219.85,360.51c-0.06,0-0.12-0.92,0.02-2.39c0.16-1.46,0.59-3.54,1.77-5.51
							c1.19-1.97,2.74-3.36,3.86-4.31c1.14-0.94,1.9-1.44,1.94-1.39c0.05,0.06-0.63,0.67-1.7,1.67c-1.05,1.01-2.52,2.42-3.66,4.31
							c-1.14,1.89-1.61,3.87-1.86,5.3C220.01,359.61,219.94,360.52,219.85,360.51z"/>
					</g>
				</g>
				<g>
					<g>
						<path style="fill:#FAFAFA;" d="M301.8,371.51c0.02,0.06-1.07,0.58-2.89,1.27c-1.82,0.69-4.39,1.54-7.3,2.19
							c-2.91,0.65-5.63,0.9-7.59,0.83c-0.49,0-0.93-0.04-1.32-0.09c-0.39-0.03-0.72-0.08-0.99-0.14c-0.54-0.11-0.83-0.18-0.82-0.22
							c0.02-0.09,1.2,0.11,3.14,0.07c1.93-0.02,4.59-0.33,7.48-0.97c2.88-0.64,5.45-1.43,7.29-2.03
							C300.63,371.84,301.77,371.44,301.8,371.51z"/>
					</g>
				</g>
				<g>
					<g>
						<path style="fill:#FAFAFA;" d="M290.82,351.74c0.06,0.02-0.26,0.63-1.1,1.25c-0.82,0.62-2.08,1.3-3.53,1.86
							c-1.45,0.56-2.81,0.94-3.81,1.12c-0.5,0.09-0.92,0.14-1.21,0.12c-0.29,0.01-0.47-0.1-0.44-0.12c0.03-0.04,0.6-0.07,1.57-0.36
							c0.96-0.27,2.28-0.7,3.71-1.25c1.43-0.55,2.67-1.15,3.51-1.67C290.36,352.18,290.74,351.7,290.82,351.74z"/>
					</g>
				</g>
				<g>
					<g>
						<path style="fill:#FAFAFA;" d="M283.94,331.66c0.03-0.01,0.02,0.17-0.15,0.36c-0.16,0.2-0.44,0.42-0.8,0.65
							c-0.73,0.46-1.8,0.97-3.02,1.41c-1.22,0.44-2.36,0.75-3.22,0.87c-0.85,0.14-1.41,0.03-1.39-0.04
							c0.01-0.07,0.51-0.09,1.32-0.32c0.81-0.21,1.91-0.56,3.11-1c1.2-0.43,2.27-0.87,3.02-1.24c0.37-0.18,0.66-0.34,0.84-0.48
							C283.84,331.76,283.9,331.65,283.94,331.66z"/>
					</g>
				</g>
				<g>
					<g>
						<path style="fill:#FAFAFA;" d="M248.29,321.05c0,0.06-0.9,0.15-2.35,0.09c-1.45-0.05-3.46-0.27-5.63-0.78
							c-2.16-0.52-4.06-1.22-5.38-1.83c-1.32-0.6-2.09-1.08-2.06-1.14c0.07-0.15,3.28,1.46,7.56,2.46
							C244.7,320.88,248.29,320.89,248.29,321.05z"/>
					</g>
				</g>
				<g>
					<g>
						<path style="fill:#FAFAFA;" d="M277.08,312.01c0.1,0.14-1.34,1.11-3.29,1.89c-1.93,0.81-3.64,1.12-3.67,0.95
							c-0.02-0.11,1.56-0.63,3.47-1.43C275.53,312.65,277.01,311.92,277.08,312.01z"/>
					</g>
				</g>
				<g>
					<g>
						<path style="fill:#FAFAFA;" d="M254.66,299.02c0.04-0.05,0.62,0.32,1.39,1.1c0.77,0.78,1.71,2.01,2.41,3.55
							c0.7,1.54,1.01,3.05,1.09,4.15c0.08,1.1-0.02,1.78-0.08,1.77c-0.17,0.01-0.11-2.73-1.49-5.71
							C256.65,300.89,254.54,299.13,254.66,299.02z"/>
					</g>
				</g>
				<g>
					<g>
						<path style="fill:#FAFAFA;" d="M223.15,313.23c-0.03,0.01-0.21-0.32-0.46-0.94c-0.25-0.63-0.55-1.56-0.8-2.75
							c-0.51-2.37-0.61-5.77,0.07-9.39c0.68-3.63,1.85-6.76,2.72-8.99c0.44-1.12,0.82-2.01,1.09-2.62c0.27-0.61,0.44-0.95,0.47-0.93
							c0.03,0.01-0.07,0.37-0.28,1.01c-0.26,0.74-0.57,1.63-0.94,2.68c-0.78,2.26-1.88,5.39-2.56,8.96
							c-0.67,3.57-0.62,6.89-0.22,9.23C222.65,311.83,223.24,313.2,223.15,313.23z"/>
					</g>
				</g>
				<g>
					<g>
						<path style="fill:#FAFAFA;" d="M199.64,303.61c-0.03-0.01,0.03-0.37,0.18-1.01c0.14-0.64,0.4-1.56,0.79-2.67
							c0.76-2.23,2.14-5.21,4.19-8.18c2.07-2.96,4.4-5.28,6.22-6.77c0.91-0.75,1.68-1.31,2.23-1.67c0.55-0.36,0.86-0.54,0.89-0.51
							c0.05,0.07-1.14,0.91-2.88,2.46c-1.74,1.54-3.99,3.87-6.03,6.79c-2.03,2.92-3.43,5.84-4.28,8.01
							C200.09,302.23,199.72,303.64,199.64,303.61z"/>
					</g>
				</g>
				<g>
					<g>
						<path style="fill:#FAFAFA;" d="M203.42,268.49c0.01,0.09-1.14,0.15-2.9,0.65c-1.76,0.48-4.11,1.46-6.5,2.9
							c-2.39,1.45-4.35,3.06-5.64,4.36c-1.3,1.29-1.96,2.22-2.03,2.17c-0.03-0.02,0.11-0.27,0.39-0.71
							c0.13-0.22,0.33-0.47,0.56-0.76c0.22-0.3,0.49-0.62,0.81-0.96c1.24-1.38,3.21-3.07,5.64-4.55c2.43-1.46,4.85-2.42,6.68-2.81
							c0.45-0.11,0.87-0.19,1.24-0.23c0.37-0.05,0.68-0.09,0.94-0.09C203.13,268.44,203.42,268.45,203.42,268.49z"/>
					</g>
				</g>
				<g>
					<g>
						<path style="fill:#FAFAFA;" d="M194.09,254.85c0,0.18-3.94-0.55-8.6,0.66c-4.67,1.15-7.79,3.66-7.88,3.51
							c-0.04-0.04,0.68-0.73,2.03-1.58c1.34-0.86,3.35-1.83,5.72-2.43c2.37-0.6,4.6-0.69,6.19-0.58
							C193.14,254.54,194.1,254.8,194.09,254.85z"/>
					</g>
				</g>
			</g>
			<g>
				<g>
					<path style="fill:#263238;" d="M248.81,321.04c0.01,0,0.08,0.22,0.2,0.65c0.12,0.47,0.29,1.11,0.5,1.91
						c0.43,1.71,1.03,4.13,1.78,7.13c1.48,6.13,3.55,14.66,5.92,24.45l0.1,0.42l-0.42-0.12c-3.33-0.93-6.85-1.93-10.48-2.95
						c-11.88-3.38-22.67-6.44-30.61-8.7l0.21-0.09c-2.18,3.78-3.95,6.85-5.2,9.02c-0.61,1.03-1.09,1.84-1.44,2.44
						c-0.16,0.25-0.28,0.46-0.39,0.63c-0.09,0.14-0.14,0.21-0.15,0.2c-0.01,0,0.03-0.08,0.1-0.23c0.09-0.18,0.2-0.39,0.34-0.65
						c0.33-0.61,0.78-1.44,1.35-2.49c1.22-2.19,2.94-5.29,5.06-9.1l0.07-0.13l0.14,0.04c7.95,2.22,18.75,5.24,30.65,8.56
						c3.63,1.02,7.15,2.02,10.48,2.96l-0.31,0.3c-2.3-9.81-4.3-18.35-5.74-24.49c-0.69-3.02-1.24-5.45-1.63-7.17
						c-0.17-0.81-0.31-1.45-0.42-1.93C248.84,321.28,248.8,321.05,248.81,321.04z"/>
				</g>
			</g>
			<g>
				<g>
					<path style="fill:#263238;" d="M271.34,318.92c0.02,0,0.09,0.2,0.2,0.59c0.12,0.44,0.28,1.01,0.48,1.71
						c0.41,1.55,0.97,3.69,1.66,6.3c1.36,5.39,3.22,12.73,5.27,20.84c1.01,4.08,1.99,7.95,2.82,11.5c0.82,3.55,1.19,6.89,0.78,9.65
						c-0.37,2.77-1.39,4.85-2.3,6.1c-0.91,1.27-1.64,1.75-1.64,1.75c-0.04-0.04,0.64-0.58,1.47-1.86c0.84-1.26,1.78-3.32,2.1-6.04
						c0.35-2.71-0.04-5.98-0.89-9.5c-0.88-3.54-1.85-7.41-2.86-11.48c-1.99-8.12-3.8-15.48-5.12-20.88
						c-0.62-2.63-1.13-4.78-1.49-6.34c-0.16-0.71-0.28-1.28-0.38-1.73C271.36,319.13,271.33,318.92,271.34,318.92z"/>
				</g>
			</g>
			<g style="opacity:0.3;">
				<g>
					<path d="M278.8,377.74c6.02,0.55,9.51-2.88,10.16-7.58c0.35-2.59-0.5-5.17-1.34-7.64c-3.69-10.82-7.42-21.73-13.28-31.55
						c2.21,9.82,5.03,19.26,7.24,29.08c0.72,3.21,0.99,5.08,0.93,8.37C282.47,371.71,280.99,375.29,278.8,377.74"/>
				</g>
			</g>
		</g>
		<g>
			<g>
				<path style="fill:#263238;" d="M256.65,289.15c3.25,0.99,6.92,0.54,9.84-1.21c2.92-1.75,5.05-4.76,5.72-8.09
					c1.61,1.54,4.02,2.05,6.21,1.65c2.19-0.4,4.16-1.61,5.79-3.12c3-2.78,5.01-6.77,4.86-10.86c-0.15-4.09-2.72-8.14-6.57-9.52
					c-3.85-1.38-8.73,0.42-10.31,4.19c-0.72-2.14,1.12-5.04,0.68-7.25c-0.88-4.45-3.54-7.05-5.8-7.14"/>
			</g>
			<g>
				<g>
					<g>
						<g>
							<path style="fill:#263238;" d="M261.49,288c4.4-7.68,5.67-17.91,6.78-26.76c0.52-4.16,1.45-10.09-1.39-12.7
								c-3.04-2.79-3.33-7.09-6.83-9.25c-3.49-2.15-8.23-2.33-11.53,0.13"/>
						</g>
						<g>
							<g>
								<g>
									<g>
										<g>
											<g>
												<g>
													<g>
														<path style="fill:#FFBE9D;" d="M238.6,303.28v-12.05c0,0-12.55-2.22-13.29-12.27c-0.74-10.06-0.48-33.28-0.48-33.28
															l0,0c10.98-5.75,24.12-4.92,34.34,2.17l-0.51,35.4l0.02,11.53l-10.27,8.34l-9.8,7.72V303.28z"/>
													</g>
												</g>
											</g>
										</g>
									</g>
								</g>
								<g>
									<path style="fill:#263238;" d="M234.99,266.65c1.68-2.16,4.41-3.02,6.66-1.52c2.25,1.5,3.12,4.84,1.91,7.3
										c-0.86,1.74-2.82,3.32-4.77,3.75c0,0,4.52,8.24,7.39,10.43c3.42,2.6,5.03,3.88,9.26,4.39c4.15,0.49,3.65,0.54,6.06-2.99
										c1.75-2.57,2.29-5.04,2.35-8.17c0.13-7.42,0.26-14.83,0.38-22.25c0.05-2.67,0.09-5.38-0.51-7.98
										c-0.6-2.6-1.93-5.13-4.1-6.59c-2.38-1.6-5.38-1.73-8.08-2.62c-3.38-1.12-6.25-3.42-9.42-5.08
										c-3.16-1.66-7.04-2.64-10.21-0.99c-2.27,1.19-3.79,3.53-6,4.84c-3.15,1.86-7.44,1.45-8.95,6.24
										c-0.52,1.65-0.48,3.47,0.07,5.11c2.16,6.5,9.97,9.1,15.59,6.27c0.11,1.1-0.93,3.56,0.2,7.04
										C233.17,264.93,233.3,266.63,234.99,266.65"/>
								</g>
							</g>
							<g>
								<g>
									<path style="fill:#EB996E;" d="M236.75,272.93c-0.04,0.02-0.04,0.19,0.14,0.43c0.17,0.24,0.54,0.53,1.09,0.56
										c1.09,0.1,2.48-1.11,2.52-2.78c0.05-0.81-0.25-1.61-0.72-2.13c-0.47-0.52-1.04-0.8-1.53-0.9c-1-0.21-1.58,0.17-1.54,0.24
										c0.02,0.11,0.6-0.05,1.41,0.25c0.79,0.26,1.78,1.18,1.69,2.51c-0.03,1.31-1.05,2.27-1.83,2.31
										C237.16,273.46,236.82,272.86,236.75,272.93z"/>
								</g>
							</g>
						</g>
					</g>
				</g>
				<g>
					<g>
						<path style="fill:#455A64;" d="M287.75,267.64c0.03,0.01-0.05,0.35-0.29,0.94c-0.23,0.59-0.66,1.42-1.33,2.34
							c-1.32,1.83-3.94,4.02-7.47,4.58c-3.54,0.53-6.7-0.81-8.48-2.19c-0.91-0.69-1.55-1.37-1.94-1.87
							c-0.39-0.5-0.56-0.81-0.54-0.83c0.08-0.07,0.86,1.13,2.69,2.4c1.78,1.26,4.83,2.48,8.18,1.98c3.35-0.53,5.9-2.57,7.26-4.29
							C287.23,268.97,287.65,267.6,287.75,267.64z"/>
					</g>
				</g>
				<g>
					<g>
						<path style="fill:#455A64;" d="M286.36,266.02c0.03,0.02-0.08,0.3-0.35,0.77c-0.27,0.48-0.71,1.14-1.36,1.87
							c-1.27,1.47-3.54,3.2-6.5,3.88c-2.96,0.68-5.76,0.08-7.53-0.71c-0.9-0.39-1.58-0.81-2.02-1.13c-0.44-0.32-0.66-0.53-0.64-0.56
							c0.05-0.08,1.01,0.67,2.79,1.35c1.76,0.68,4.45,1.19,7.28,0.54c2.83-0.65,5.04-2.26,6.35-3.62
							C285.71,267.04,286.27,265.97,286.36,266.02z"/>
					</g>
				</g>
				<g>
					<g>
						<path style="fill:#455A64;" d="M269.53,278.94c0.01,0.02-0.13,0.09-0.42,0.23c-0.29,0.12-0.73,0.28-1.32,0.35
							c-1.18,0.17-3-0.12-4.79-1.32c-1.82-1.17-3.33-3.35-4.51-5.86c-1.22-2.5-2.19-5.44-4.09-7.97c-0.94-1.25-2.1-2.3-3.43-2.93
							c-1.32-0.64-2.74-0.94-4.11-1.08c-2.73-0.28-5.26-0.1-7.36-0.39c-2.11-0.24-3.76-0.86-4.77-1.48
							c-0.5-0.32-0.86-0.61-1.09-0.82c-0.22-0.22-0.33-0.34-0.32-0.35c0.03-0.04,0.5,0.43,1.51,1c1.02,0.56,2.63,1.11,4.71,1.29
							c2.07,0.24,4.57,0.02,7.37,0.28c1.39,0.13,2.88,0.43,4.28,1.1c1.41,0.67,2.64,1.77,3.62,3.08c1.97,2.63,2.92,5.6,4.11,8.08
							c1.15,2.5,2.56,4.6,4.28,5.76c1.69,1.19,3.42,1.52,4.56,1.42C268.93,279.24,269.51,278.88,269.53,278.94z"/>
					</g>
				</g>
				<g>
					<g>
						<path style="fill:#455A64;" d="M268.55,275.31c0,0.02-0.15,0.03-0.45,0.04c-0.3,0.01-0.74-0.03-1.28-0.16
							c-1.1-0.27-2.59-1.11-3.91-2.65c-0.67-0.76-1.31-1.66-1.88-2.69c-0.58-1.03-1.1-2.17-1.68-3.34
							c-0.58-1.17-1.21-2.39-2.05-3.52c-0.42-0.56-0.89-1.1-1.43-1.57c-0.26-0.25-0.57-0.44-0.87-0.65
							c-0.3-0.21-0.59-0.43-0.93-0.57c-1.29-0.72-2.75-1.02-4.13-1.21c-1.4-0.2-2.77-0.19-4.08-0.21c-2.62,0.02-5,0.08-7-0.18
							c-1.99-0.24-3.55-0.8-4.53-1.36c-0.5-0.26-0.82-0.56-1.07-0.72c-0.24-0.18-0.35-0.28-0.34-0.29c0.03-0.04,0.54,0.32,1.5,0.83
							c0.99,0.49,2.52,0.98,4.48,1.17c1.96,0.21,4.32,0.11,6.95,0.07c1.32,0.01,2.71-0.01,4.15,0.18c1.43,0.2,2.94,0.5,4.31,1.26
							c0.36,0.15,0.67,0.39,0.99,0.61c0.31,0.22,0.64,0.42,0.91,0.69c0.57,0.51,1.06,1.07,1.49,1.66c0.86,1.18,1.5,2.43,2.07,3.61
							c0.57,1.19,1.08,2.33,1.63,3.34c0.54,1.02,1.15,1.91,1.78,2.66c1.25,1.52,2.65,2.37,3.69,2.69
							C267.92,275.32,268.55,275.26,268.55,275.31z"/>
					</g>
				</g>
				<g>
					<g>
						<path style="fill:#E8505B;" d="M270.98,280.45c-0.02,0.02-0.23-0.13-0.55-0.47c-0.33-0.33-0.76-0.85-1.22-1.55
							c-0.91-1.38-1.84-3.59-1.94-6.17c-0.1-2.57,0.65-4.85,1.45-6.3c0.4-0.73,0.79-1.29,1.09-1.64c0.3-0.36,0.49-0.53,0.51-0.51
							c0.07,0.06-0.58,0.85-1.27,2.32c-0.69,1.45-1.36,3.65-1.26,6.12c0.1,2.46,0.93,4.6,1.74,6
							C270.33,279.65,271.05,280.39,270.98,280.45z"/>
					</g>
				</g>
			</g>
		</g>
	</g>
</g>
<g id="Plant">
	<g>
		<g>
			<g>
				<g>
					<g>
						<path style="fill:#0142F9;" d="M410.14,418.9c6.9,2.41,15.9,0.26,21.8-4.05c5.9-4.31,10.15-10.48,13.91-16.75
							c1.61-2.67,3.17-5.46,3.68-8.54c0.51-3.08-0.24-6.54-2.63-8.55c-3.71-3.12-9.39-1.54-13.6,0.86
							C420.13,389.38,411.13,403.76,410.14,418.9"/>
					</g>
				</g>
			</g>
			<g>
				<g>
					<g>
						<path style="fill:#0142F9;" d="M417.55,435.41c4.14,5.47,11.26,7.9,18.11,8.22c6.85,0.32,13.62-1.58,20.03-4.03
							c2.32-0.89,4.87-2.11,5.66-4.47c0.6-1.78-0.02-3.82-1.21-5.27c-1.2-1.46-2.89-2.41-4.62-3.15c-6.3-2.68-13.52-2.81-20.16-1.09
							S422.93,431.17,417.55,435.41"/>
					</g>
				</g>
			</g>
			<g>
				<g>
					<g>
						<path style="fill:#0142F9;" d="M410.04,389.34c5.71,0.11,10.03-4.89,12.62-9.98c3.58-7.05,4.79-15.28,3.4-23.07
							c-0.52-2.92-1.63-6.06-4.24-7.47c-2.65-1.43-6.11-0.49-8.33,1.54c-2.23,2.03-3.44,4.93-4.33,7.81
							C406.09,368.1,406.75,379.49,410.04,389.34"/>
					</g>
				</g>
			</g>
			<g>
				<g>
					<g>
						<path style="fill:#0142F9;" d="M391.28,420.93c9.74-16.57,11.36-36.85,5.61-55.19c-0.93-2.98-2.69-6.38-5.81-6.58
							c-3.45-0.22-5.61,3.62-6.56,6.94c-3.34,11.65-2.63,24.02-1.89,36.11C383.09,409.67,385.65,416.03,391.28,420.93"/>
					</g>
				</g>
			</g>
			<g>
				<g>
					<g>
						<path style="fill:#0142F9;" d="M381.15,427.75c-3.53-11.35-12.5-20.87-23.63-25.06c-2.59-0.97-5.87-1.53-7.8,0.45
							c-1.89,1.94-1.31,5.18-0.1,7.61c1.96,3.91,5.14,7.06,8.31,10.08c2.88,2.75,5.88,5.5,9.53,7.1
							C371.12,429.51,377.82,429.92,381.15,427.75"/>
					</g>
				</g>
			</g>
			<g>
				<g>
					<g>
						<g>
							<path style="fill:#263238;" d="M441.52,385.17c0,0.01-0.05,0.06-0.17,0.15c-0.14,0.11-0.31,0.24-0.52,0.41
								c-0.5,0.37-1.18,0.88-2.04,1.53c-0.45,0.33-0.94,0.7-1.48,1.09c-0.53,0.41-1.09,0.89-1.7,1.38c-1.2,1.01-2.63,2.09-4.06,3.45
								c-0.73,0.67-1.5,1.36-2.3,2.09c-0.79,0.73-1.56,1.55-2.39,2.37c-1.68,1.61-3.3,3.49-5.04,5.43
								c-3.38,3.98-6.85,8.57-10.04,13.69c-3.15,5.15-5.7,10.3-7.76,15.1c-0.96,2.43-1.91,4.72-2.61,6.94
								c-0.36,1.1-0.76,2.16-1.05,3.19c-0.29,1.04-0.57,2.03-0.84,2.99c-0.58,1.89-0.91,3.65-1.27,5.18
								c-0.17,0.77-0.35,1.48-0.48,2.14c-0.11,0.66-0.22,1.26-0.32,1.81c-0.19,1.06-0.34,1.9-0.45,2.51
								c-0.05,0.26-0.09,0.48-0.13,0.65c-0.03,0.15-0.05,0.22-0.06,0.22c-0.01,0,0-0.08,0.01-0.23c0.02-0.17,0.05-0.39,0.08-0.66
								c0.09-0.61,0.21-1.46,0.37-2.52c0.08-0.55,0.18-1.16,0.28-1.82c0.12-0.66,0.28-1.38,0.44-2.15c0.34-1.54,0.65-3.31,1.21-5.21
								c0.26-0.96,0.53-1.96,0.81-3c0.29-1.04,0.68-2.1,1.03-3.21c0.68-2.23,1.63-4.54,2.58-6.98c2.04-4.83,4.6-10.02,7.76-15.18
								c3.21-5.14,6.7-9.74,10.11-13.72c1.76-1.94,3.4-3.82,5.1-5.43c0.83-0.81,1.61-1.63,2.41-2.36c0.81-0.72,1.58-1.41,2.32-2.07
								c1.45-1.35,2.9-2.42,4.12-3.41c0.62-0.49,1.18-0.95,1.72-1.36c0.55-0.39,1.05-0.74,1.51-1.06c0.89-0.62,1.59-1.1,2.09-1.46
								c0.22-0.15,0.4-0.27,0.55-0.37C441.45,385.2,441.52,385.16,441.52,385.17z"/>
						</g>
					</g>
				</g>
			</g>
			<g>
				<g>
					<g>
						<g>
							<path style="fill:#263238;" d="M454.42,431.11c0,0.02-0.23-0.02-0.67-0.11c-0.44-0.08-1.07-0.25-1.9-0.38
								c-1.65-0.32-4.06-0.69-7.05-0.86c-5.96-0.38-14.42,0.32-22.89,3.85c-8.48,3.53-14.94,9.03-18.87,13.53
								c-1.99,2.25-3.42,4.21-4.36,5.61c-0.49,0.69-0.81,1.25-1.06,1.62c-0.24,0.37-0.38,0.56-0.39,0.55
								c-0.01-0.01,0.09-0.21,0.31-0.6c0.23-0.38,0.53-0.96,0.99-1.67c0.89-1.43,2.3-3.43,4.26-5.72
								c3.89-4.58,10.38-10.18,18.94-13.74c8.55-3.56,17.1-4.22,23.09-3.75c3.01,0.22,5.42,0.63,7.06,1.01
								c0.83,0.17,1.45,0.36,1.88,0.47C454.2,431.02,454.42,431.09,454.42,431.11z"/>
						</g>
					</g>
				</g>
			</g>
			<g>
				<g>
					<g>
						<g>
							<path style="fill:#263238;" d="M418.46,355.44c0.01,0-0.01,0.09-0.04,0.26c-0.04,0.19-0.09,0.44-0.16,0.74
								c-0.15,0.68-0.37,1.64-0.64,2.85c-0.56,2.48-1.42,6.05-2.49,10.46c-2.14,8.82-5.26,20.97-8.51,34.43
								c-1.61,6.74-3.07,13.17-4.33,19.03c-1.24,5.87-2.29,11.17-3.07,15.64c-0.42,2.23-0.74,4.26-1.04,6.03
								c-0.31,1.78-0.54,3.31-0.73,4.57c-0.19,1.23-0.34,2.2-0.45,2.89c-0.05,0.31-0.1,0.56-0.13,0.75
								c-0.03,0.17-0.05,0.25-0.06,0.25c-0.01,0,0-0.09,0.01-0.26c0.02-0.2,0.05-0.44,0.08-0.76c0.09-0.7,0.21-1.67,0.36-2.9
								c0.16-1.26,0.37-2.8,0.65-4.58c0.28-1.78,0.57-3.82,0.97-6.05c0.74-4.48,1.77-9.79,2.98-15.67
								c1.24-5.88,2.69-12.32,4.3-19.05c3.25-13.47,6.42-25.6,8.64-34.4c1.11-4.38,2-7.93,2.63-10.42c0.31-1.21,0.55-2.15,0.72-2.83
								c0.08-0.3,0.15-0.54,0.2-0.73C418.42,355.52,418.45,355.44,418.46,355.44z"/>
						</g>
					</g>
				</g>
			</g>
			<g>
				<g>
					<g>
						<g>
							<path style="fill:#263238;" d="M396.1,452.02c-0.01,0-0.03-0.07-0.06-0.2c-0.04-0.16-0.08-0.36-0.14-0.6
								c-0.12-0.57-0.28-1.33-0.48-2.31c-0.41-2-0.96-4.91-1.58-8.52c-1.25-7.21-2.73-17.22-3.64-28.36
								c-0.44-5.57-0.69-10.89-0.79-15.73c-0.08-4.84-0.04-9.2,0.11-12.86c0.04-1.83,0.17-3.48,0.25-4.93
								c0.07-1.45,0.18-2.7,0.27-3.72c0.09-0.99,0.16-1.77,0.22-2.35c0.03-0.24,0.05-0.44,0.07-0.61c0.02-0.14,0.03-0.21,0.04-0.21
								c0.01,0,0.01,0.07,0.01,0.21c-0.01,0.17-0.01,0.37-0.02,0.61c-0.03,0.58-0.08,1.36-0.13,2.35c-0.07,1.02-0.14,2.27-0.19,3.72
								c-0.06,1.45-0.15,3.1-0.18,4.93c-0.11,3.65-0.12,8.01-0.01,12.84c0.13,4.83,0.39,10.14,0.83,15.7
								c0.91,11.12,2.34,21.12,3.5,28.34c0.58,3.61,1.08,6.53,1.44,8.54c0.17,0.98,0.3,1.75,0.39,2.32
								c0.04,0.24,0.07,0.44,0.09,0.61C396.1,451.94,396.1,452.01,396.1,452.02z"/>
						</g>
					</g>
				</g>
			</g>
			<g>
				<g>
					<g>
						<g>
							<path style="fill:#263238;" d="M396.82,454.12c-0.02,0-0.1-0.19-0.25-0.57c-0.16-0.42-0.38-0.98-0.64-1.67
								c-0.14-0.37-0.29-0.77-0.46-1.21c-0.19-0.43-0.4-0.9-0.63-1.4c-0.22-0.5-0.46-1.04-0.71-1.61c-0.25-0.57-0.58-1.15-0.89-1.76
								c-0.32-0.62-0.65-1.26-0.99-1.93c-0.38-0.65-0.78-1.33-1.18-2.04c-0.78-1.43-1.79-2.85-2.77-4.4
								c-2.09-3.01-4.54-6.2-7.33-9.37c-2.82-3.15-5.7-5.97-8.42-8.42c-1.4-1.18-2.68-2.36-3.98-3.35c-0.64-0.51-1.25-1-1.84-1.47
								c-0.61-0.45-1.19-0.88-1.75-1.29c-1.1-0.84-2.14-1.54-3.06-2.15c-0.91-0.63-1.7-1.15-2.36-1.55
								c-0.62-0.4-1.13-0.71-1.51-0.96c-0.34-0.22-0.52-0.35-0.51-0.36c0.01-0.01,0.2,0.08,0.56,0.28c0.4,0.22,0.91,0.52,1.56,0.88
								c0.68,0.38,1.49,0.88,2.41,1.49c0.93,0.59,1.99,1.28,3.11,2.1c0.57,0.41,1.16,0.83,1.77,1.27c0.6,0.47,1.22,0.95,1.87,1.45
								c1.31,0.98,2.61,2.15,4.02,3.33c2.74,2.45,5.64,5.27,8.48,8.44c2.81,3.19,5.26,6.41,7.34,9.44c0.97,1.56,1.98,3,2.75,4.44
								c0.4,0.71,0.79,1.4,1.17,2.06c0.34,0.68,0.66,1.33,0.97,1.96c0.3,0.63,0.62,1.21,0.86,1.79c0.24,0.58,0.47,1.12,0.69,1.63
								c0.21,0.51,0.41,0.98,0.59,1.42c0.15,0.44,0.29,0.85,0.42,1.22c0.23,0.7,0.42,1.27,0.56,1.7
								C396.77,453.91,396.83,454.11,396.82,454.12z"/>
						</g>
					</g>
				</g>
			</g>
			<g>
				<g>
					<g>
						<g>
							<path style="fill:#263238;" d="M437.91,404.39c0,0.07-1.18,0.07-3.08,0.18c-1.89,0.1-4.51,0.35-7.35,0.89
								c-2.84,0.54-5.36,1.27-7.17,1.87c-1.8,0.6-2.9,1.03-2.93,0.96c-0.01-0.03,0.25-0.17,0.73-0.4c0.48-0.23,1.19-0.53,2.09-0.87
								c1.78-0.68,4.32-1.46,7.19-2.01c2.87-0.54,5.51-0.74,7.42-0.76c0.96-0.01,1.73,0.01,2.26,0.04
								C437.62,404.33,437.91,404.36,437.91,404.39z"/>
						</g>
					</g>
				</g>
			</g>
			<g>
				<g>
					<g>
						<g>
							<path style="fill:#263238;" d="M445.26,440.27c-0.14,0.07-1.24-3.1-4.01-6.05c-2.73-2.98-5.82-4.31-5.73-4.44
								c0.02-0.05,0.81,0.22,1.98,0.88c1.17,0.65,2.69,1.75,4.09,3.26c1.4,1.51,2.38,3.11,2.94,4.32
								C445.1,439.45,445.31,440.25,445.26,440.27z"/>
						</g>
					</g>
				</g>
			</g>
			<g>
				<g>
					<g>
						<g>
							<path style="fill:#263238;" d="M420.21,368.89c0.09,0.1-1.7,1.88-3.66,4.28c-1.97,2.4-3.35,4.51-3.46,4.44
								c-0.1-0.06,1.12-2.3,3.11-4.73C418.18,370.45,420.13,368.8,420.21,368.89z"/>
						</g>
					</g>
				</g>
			</g>
			<g>
				<g>
					<g>
						<g>
							<path style="fill:#263238;" d="M414.32,358.73c0.13-0.02,0.52,1.7,0.89,3.84c0.37,2.14,0.56,3.9,0.43,3.92
								c-0.12,0.02-0.52-1.7-0.89-3.84C414.39,360.51,414.2,358.75,414.32,358.73z"/>
						</g>
					</g>
				</g>
			</g>
			<g>
				<g>
					<g>
						<g>
							<path style="fill:#263238;" d="M396.11,390.61c0.11,0.06-1.16,2.74-2.85,6c-1.69,3.26-3.15,5.85-3.26,5.79
								c-0.11-0.06,1.16-2.74,2.85-6C394.54,393.15,396,390.56,396.11,390.61z"/>
						</g>
					</g>
				</g>
			</g>
			<g>
				<g>
					<g>
						<g>
							<path style="fill:#263238;" d="M385.27,379.79c0.11-0.06,1.2,1.89,2.42,4.34c1.22,2.45,2.12,4.49,2.01,4.54
								c-0.11,0.06-1.19-1.89-2.42-4.34C386.05,381.88,385.15,379.85,385.27,379.79z"/>
						</g>
					</g>
				</g>
			</g>
			<g>
				<g>
					<g>
						<g>
							<path style="fill:#263238;" d="M369.33,416.81c-0.03,0.13-1.96-0.24-4.37-0.41c-2.41-0.18-4.38-0.08-4.39-0.21
								c-0.02-0.12,1.97-0.43,4.42-0.25C367.45,416.11,369.36,416.69,369.33,416.81z"/>
						</g>
					</g>
				</g>
			</g>
		</g>
		<g>
			<g>
				<g>
					<g>
						<path style="fill:#263238;" d="M380.22,449.53l5.42,28.51c0.36,1.89,2.01,3.25,3.93,3.25h16.01c1.95,0,3.62-1.41,3.94-3.34
							l4.71-28.41H380.22z"/>
					</g>
				</g>
			</g>
			<g>
				<g>
					<g>
						<polygon style="fill:#455A64;" points="381.98,458.8 412.6,458.8 414.23,449.53 380.22,449.53 						"/>
					</g>
				</g>
			</g>
			<g>
				<g>
					<g>
						<polygon style="fill:#FAFAFA;" points="381.98,458.8 382.62,462.18 412.13,462.18 412.6,458.8 						"/>
					</g>
				</g>
			</g>
		</g>
	</g>
</g>
</svg>
